solid Rod Base
facet normal 0.0 0.0 -1.0
  outer loop
    vertex -6.929646455628162 6.92964645562817 0.0
    vertex -7.8 1.4328367550024033e-15 0.0
    vertex -8.487048957087497 4.900000000000005 0.0
  endloop
endfacet
facet normal 0.0 0.0 -1.0
  outer loop
    vertex -7.8 1.4328367550024033e-15 0.0
    vertex -6.929646455628162 6.92964645562817 0.0
    vertex -7.667110722527366 1.0093942758998342 0.0
  endloop
endfacet
facet normal 0.0 0.0 -1.0
  outer loop
    vertex -7.667110722527366 1.0093942758998342 0.0
    vertex -6.929646455628162 6.92964645562817 0.0
    vertex -7.534221445054731 2.018788551799667 0.0
  endloop
endfacet
facet normal 0.0 0.0 -1.0
  outer loop
    vertex -7.534221445054731 2.018788551799667 0.0
    vertex -6.929646455628162 6.92964645562817 0.0
    vertex -7.144609797286675 2.9593942758998337 0.0
  endloop
endfacet
facet normal 0.0 0.0 -1.0
  outer loop
    vertex -7.144609797286675 2.9593942758998337 0.0
    vertex -6.929646455628162 6.92964645562817 0.0
    vertex -6.754998149518619 3.9000000000000035 0.0
  endloop
endfacet
facet normal 0.0 0.0 -1.0
  outer loop
    vertex -6.754998149518619 3.9000000000000035 0.0
    vertex -6.929646455628162 6.92964645562817 0.0
    vertex -4.899999999999998 8.4870489570875 0.0
  endloop
endfacet
facet normal 0.0 0.0 -1.0
  outer loop
    vertex -6.754998149518619 3.9000000000000035 0.0
    vertex -4.899999999999998 8.4870489570875 0.0
    vertex -6.135215521386844 4.707716446627538 0.0
  endloop
endfacet
facet normal 0.0 0.0 -1.0
  outer loop
    vertex -6.135215521386844 4.707716446627538 0.0
    vertex -4.899999999999998 8.4870489570875 0.0
    vertex -5.515432893255067 5.515432893255074 0.0
  endloop
endfacet
facet normal 0.0 0.0 -1.0
  outer loop
    vertex -5.515432893255067 5.515432893255074 0.0
    vertex -4.899999999999998 8.4870489570875 0.0
    vertex -4.707716446627532 6.135215521386847 0.0
  endloop
endfacet
facet normal 0.0 0.0 -1.0
  outer loop
    vertex -4.707716446627532 6.135215521386847 0.0
    vertex -4.899999999999998 8.4870489570875 0.0
    vertex -2.5364266420046993 9.46607309763287 0.0
  endloop
endfacet
facet normal 0.0 0.0 -1.0
  outer loop
    vertex -4.707716446627532 6.135215521386847 0.0
    vertex -2.5364266420046993 9.46607309763287 0.0
    vertex -3.8999999999999986 6.754998149518622 0.0
  endloop
endfacet
facet normal 0.0 0.0 -1.0
  outer loop
    vertex -3.8999999999999986 6.754998149518622 0.0
    vertex -2.5364266420046993 9.46607309763287 0.0
    vertex -2.959394275899828 7.1446097972866776 0.0
  endloop
endfacet
facet normal 0.0 0.0 -1.0
  outer loop
    vertex -2.959394275899828 7.1446097972866776 0.0
    vertex -2.5364266420046993 9.46607309763287 0.0
    vertex -2.0187885517996587 7.534221445054734 0.0
  endloop
endfacet
facet normal 0.0 0.0 -1.0
  outer loop
    vertex -2.0187885517996587 7.534221445054734 0.0
    vertex -2.5364266420046993 9.46607309763287 0.0
    vertex 1.2001538631644061e-15 9.8 0.0
  endloop
endfacet
facet normal 0.0 0.0 -1.0
  outer loop
    vertex -2.0187885517996587 7.534221445054734 0.0
    vertex 1.2001538631644061e-15 9.8 0.0
    vertex -1.0093942758998224 7.667110722527366 0.0
  endloop
endfacet
facet normal 0.0 0.0 -1.0
  outer loop
    vertex -1.0093942758998224 7.667110722527366 0.0
    vertex 1.2001538631644061e-15 9.8 0.0
    vertex 9.552245033349355e-16 7.8 0.0
  endloop
endfacet
facet normal 0.0 0.0 -1.0
  outer loop
    vertex 9.552245033349355e-16 7.8 0.0
    vertex 1.2001538631644061e-15 9.8 0.0
    vertex 1.0093942758998373 7.667110722527363 0.0
  endloop
endfacet
facet normal 0.0 0.0 -1.0
  outer loop
    vertex 1.0093942758998373 7.667110722527363 0.0
    vertex 1.2001538631644061e-15 9.8 0.0
    vertex 2.536426642004706 9.466073097632869 0.0
  endloop
endfacet
facet normal 0.0 0.0 -1.0
  outer loop
    vertex 1.0093942758998373 7.667110722527363 0.0
    vertex 2.536426642004706 9.466073097632869 0.0
    vertex 2.018788551799664 7.534221445054731 0.0
  endloop
endfacet
facet normal 0.0 0.0 -1.0
  outer loop
    vertex 2.018788551799664 7.534221445054731 0.0
    vertex 2.536426642004706 9.466073097632869 0.0
    vertex 2.9593942758998346 7.144609797286675 0.0
  endloop
endfacet
facet normal 0.0 0.0 -1.0
  outer loop
    vertex 2.9593942758998346 7.144609797286675 0.0
    vertex 2.536426642004706 9.466073097632869 0.0
    vertex 4.900000000000004 8.487048957087497 0.0
  endloop
endfacet
facet normal 0.0 0.0 -1.0
  outer loop
    vertex 2.9593942758998346 7.144609797286675 0.0
    vertex 4.900000000000004 8.487048957087497 0.0
    vertex 3.9000000000000026 6.754998149518619 0.0
  endloop
endfacet
facet normal 0.0 0.0 -1.0
  outer loop
    vertex 3.9000000000000026 6.754998149518619 0.0
    vertex 4.900000000000004 8.487048957087497 0.0
    vertex 4.707716446627542 6.13521552138684 0.0
  endloop
endfacet
facet normal 0.0 0.0 -1.0
  outer loop
    vertex 4.707716446627542 6.13521552138684 0.0
    vertex 4.900000000000004 8.487048957087497 0.0
    vertex 5.5154328932550705 5.5154328932550705 0.0
  endloop
endfacet
facet normal 0.0 0.0 -1.0
  outer loop
    vertex 5.5154328932550705 5.5154328932550705 0.0
    vertex 4.900000000000004 8.487048957087497 0.0
    vertex 6.929646455628165 6.929646455628165 0.0
  endloop
endfacet
facet normal 0.0 0.0 -1.0
  outer loop
    vertex 5.5154328932550705 5.5154328932550705 0.0
    vertex 6.929646455628165 6.929646455628165 0.0
    vertex 6.13521552138685 4.707716446627529 0.0
  endloop
endfacet
facet normal 0.0 0.0 -1.0
  outer loop
    vertex 6.13521552138685 4.707716446627529 0.0
    vertex 6.929646455628165 6.929646455628165 0.0
    vertex 6.754998149518622 3.8999999999999986 0.0
  endloop
endfacet
facet normal 0.0 0.0 -1.0
  outer loop
    vertex 6.754998149518622 3.8999999999999986 0.0
    vertex 6.929646455628165 6.929646455628165 0.0
    vertex 7.1446097972866776 2.9593942758998266 0.0
  endloop
endfacet
facet normal 0.0 0.0 -1.0
  outer loop
    vertex 7.1446097972866776 2.9593942758998266 0.0
    vertex 6.929646455628165 6.929646455628165 0.0
    vertex 8.4870489570875 4.899999999999998 0.0
  endloop
endfacet
facet normal 0.0 0.0 -1.0
  outer loop
    vertex 7.1446097972866776 2.9593942758998266 0.0
    vertex 8.4870489570875 4.899999999999998 0.0
    vertex 7.534221445054733 2.018788551799661 0.0
  endloop
endfacet
facet normal 0.0 0.0 -1.0
  outer loop
    vertex 7.534221445054733 2.018788551799661 0.0
    vertex 8.4870489570875 4.899999999999998 0.0
    vertex 7.667110722527366 1.009394275899823 0.0
  endloop
endfacet
facet normal 0.0 0.0 -1.0
  outer loop
    vertex 7.667110722527366 1.009394275899823 0.0
    vertex 8.4870489570875 4.899999999999998 0.0
    vertex 7.8 -4.776122516674677e-16 0.0
  endloop
endfacet
facet normal 0.0 0.0 -1.0
  outer loop
    vertex 7.8 -4.776122516674677e-16 0.0
    vertex 8.4870489570875 4.899999999999998 0.0
    vertex 8.487048957087499 -4.900000000000001 0.0
  endloop
endfacet
facet normal 0.0 0.0 -1.0
  outer loop
    vertex 8.487048957087499 -4.900000000000001 0.0
    vertex 8.4870489570875 4.899999999999998 0.0
    vertex 9.466073097632869 -2.5364266420047055 0.0
  endloop
endfacet
facet normal 0.0 0.0 -1.0
  outer loop
    vertex 9.466073097632869 -2.5364266420047055 0.0
    vertex 8.4870489570875 4.899999999999998 0.0
    vertex 9.46607309763287 2.5364266420047024 0.0
  endloop
endfacet
facet normal 0.0 0.0 -1.0
  outer loop
    vertex 9.466073097632869 -2.5364266420047055 0.0
    vertex 9.46607309763287 2.5364266420047024 0.0
    vertex 9.8 -6.000769315822031e-16 0.0
  endloop
endfacet
facet normal 0.0 0.0 -1.0
  outer loop
    vertex -9.466073097632867 2.5364266420047104 0.0
    vertex -9.46607309763287 -2.536426642004699 0.0
    vertex -9.8 1.800230794746609e-15 0.0
  endloop
endfacet
facet normal 0.0 0.0 -1.0
  outer loop
    vertex -9.46607309763287 -2.536426642004699 0.0
    vertex -9.466073097632867 2.5364266420047104 0.0
    vertex -8.487048957087504 -4.899999999999993 0.0
  endloop
endfacet
facet normal 0.0 0.0 -1.0
  outer loop
    vertex -8.487048957087504 -4.899999999999993 0.0
    vertex -9.466073097632867 2.5364266420047104 0.0
    vertex -8.487048957087497 4.900000000000005 0.0
  endloop
endfacet
facet normal 0.0 0.0 -1.0
  outer loop
    vertex -8.487048957087504 -4.899999999999993 0.0
    vertex -8.487048957087497 4.900000000000005 0.0
    vertex -6.929646455628167 -6.929646455628165 0.0
  endloop
endfacet
facet normal 0.0 0.0 -1.0
  outer loop
    vertex -6.929646455628167 -6.929646455628165 0.0
    vertex -8.487048957087497 4.900000000000005 0.0
    vertex -7.8 1.4328367550024033e-15 0.0
  endloop
endfacet
facet normal 0.0 0.0 -1.0
  outer loop
    vertex -6.929646455628167 -6.929646455628165 0.0
    vertex -7.8 1.4328367550024033e-15 0.0
    vertex -7.667110722527365 -1.0093942758998264 0.0
  endloop
endfacet
facet normal 0.0 0.0 -1.0
  outer loop
    vertex -6.929646455628167 -6.929646455628165 0.0
    vertex -7.667110722527365 -1.0093942758998264 0.0
    vertex -7.534221445054734 -2.018788551799658 0.0
  endloop
endfacet
facet normal 0.0 0.0 -1.0
  outer loop
    vertex -6.929646455628167 -6.929646455628165 0.0
    vertex -7.534221445054734 -2.018788551799658 0.0
    vertex -7.1446097972866776 -2.959394275899828 0.0
  endloop
endfacet
facet normal 0.0 0.0 -1.0
  outer loop
    vertex -6.929646455628167 -6.929646455628165 0.0
    vertex -7.1446097972866776 -2.959394275899828 0.0
    vertex -6.754998149518625 -3.899999999999994 0.0
  endloop
endfacet
facet normal 0.0 0.0 -1.0
  outer loop
    vertex -6.929646455628167 -6.929646455628165 0.0
    vertex -6.754998149518625 -3.899999999999994 0.0
    vertex -4.900000000000005 -8.487048957087497 0.0
  endloop
endfacet
facet normal 0.0 0.0 -1.0
  outer loop
    vertex -4.900000000000005 -8.487048957087497 0.0
    vertex -6.754998149518625 -3.899999999999994 0.0
    vertex -6.135215521386847 -4.707716446627532 0.0
  endloop
endfacet
facet normal 0.0 0.0 -1.0
  outer loop
    vertex -4.900000000000005 -8.487048957087497 0.0
    vertex -6.135215521386847 -4.707716446627532 0.0
    vertex -5.515432893255071 -5.5154328932550705 0.0
  endloop
endfacet
facet normal 0.0 0.0 -1.0
  outer loop
    vertex -4.900000000000005 -8.487048957087497 0.0
    vertex -5.515432893255071 -5.5154328932550705 0.0
    vertex -4.707716446627539 -6.135215521386843 0.0
  endloop
endfacet
facet normal 0.0 0.0 -1.0
  outer loop
    vertex -4.900000000000005 -8.487048957087497 0.0
    vertex -4.707716446627539 -6.135215521386843 0.0
    vertex -2.536426642004711 -9.466073097632867 0.0
  endloop
endfacet
facet normal 0.0 0.0 -1.0
  outer loop
    vertex -2.536426642004711 -9.466073097632867 0.0
    vertex -4.707716446627539 -6.135215521386843 0.0
    vertex -3.9000000000000035 -6.754998149518619 0.0
  endloop
endfacet
facet normal 0.0 0.0 -1.0
  outer loop
    vertex -2.536426642004711 -9.466073097632867 0.0
    vertex -3.9000000000000035 -6.754998149518619 0.0
    vertex -2.9593942758998337 -7.144609797286675 0.0
  endloop
endfacet
facet normal 0.0 0.0 -1.0
  outer loop
    vertex -2.536426642004711 -9.466073097632867 0.0
    vertex -2.9593942758998337 -7.144609797286675 0.0
    vertex -2.018788551799668 -7.534221445054731 0.0
  endloop
endfacet
facet normal 0.0 0.0 -1.0
  outer loop
    vertex -2.536426642004711 -9.466073097632867 0.0
    vertex -2.018788551799668 -7.534221445054731 0.0
    vertex 0.0 -9.8 0.0
  endloop
endfacet
facet normal 0.0 0.0 -1.0
  outer loop
    vertex 0.0 -9.8 0.0
    vertex -2.018788551799668 -7.534221445054731 0.0
    vertex -1.0093942758998369 -7.667110722527365 0.0
  endloop
endfacet
facet normal 0.0 0.0 -1.0
  outer loop
    vertex 0.0 -9.8 0.0
    vertex -1.0093942758998369 -7.667110722527365 0.0
    vertex 0.0 -7.8 0.0
  endloop
endfacet
facet normal 0.0 0.0 -1.0
  outer loop
    vertex 0.0 -9.8 0.0
    vertex 0.0 -7.8 0.0
    vertex 1.009394275899826 -7.667110722527365 0.0
  endloop
endfacet
facet normal 0.0 0.0 -1.0
  outer loop
    vertex 0.0 -9.8 0.0
    vertex 1.009394275899826 -7.667110722527365 0.0
    vertex 2.5364266420047032 -9.46607309763287 0.0
  endloop
endfacet
facet normal 0.0 0.0 -1.0
  outer loop
    vertex 2.5364266420047032 -9.46607309763287 0.0
    vertex 1.009394275899826 -7.667110722527365 0.0
    vertex 2.0187885517996618 -7.534221445054733 0.0
  endloop
endfacet
facet normal 0.0 0.0 -1.0
  outer loop
    vertex 2.5364266420047032 -9.46607309763287 0.0
    vertex 2.0187885517996618 -7.534221445054733 0.0
    vertex 2.9593942758998275 -7.1446097972866776 0.0
  endloop
endfacet
facet normal 0.0 0.0 -1.0
  outer loop
    vertex 2.5364266420047032 -9.46607309763287 0.0
    vertex 2.9593942758998275 -7.1446097972866776 0.0
    vertex 4.8999999999999995 -8.487048957087499 0.0
  endloop
endfacet
facet normal 0.0 0.0 -1.0
  outer loop
    vertex 4.8999999999999995 -8.487048957087499 0.0
    vertex 2.9593942758998275 -7.1446097972866776 0.0
    vertex 3.899999999999999 -6.754998149518622 0.0
  endloop
endfacet
facet normal 0.0 0.0 -1.0
  outer loop
    vertex 4.8999999999999995 -8.487048957087499 0.0
    vertex 3.899999999999999 -6.754998149518622 0.0
    vertex 4.707716446627531 -6.13521552138685 0.0
  endloop
endfacet
facet normal 0.0 0.0 -1.0
  outer loop
    vertex 4.8999999999999995 -8.487048957087499 0.0
    vertex 4.707716446627531 -6.13521552138685 0.0
    vertex 5.5154328932550705 -5.5154328932550705 0.0
  endloop
endfacet
facet normal 0.0 0.0 -1.0
  outer loop
    vertex 4.8999999999999995 -8.487048957087499 0.0
    vertex 5.5154328932550705 -5.5154328932550705 0.0
    vertex 6.929646455628165 -6.929646455628165 0.0
  endloop
endfacet
facet normal 0.0 0.0 -1.0
  outer loop
    vertex 6.929646455628165 -6.929646455628165 0.0
    vertex 5.5154328932550705 -5.5154328932550705 0.0
    vertex 6.135215521386843 -4.707716446627539 0.0
  endloop
endfacet
facet normal 0.0 0.0 -1.0
  outer loop
    vertex 6.929646455628165 -6.929646455628165 0.0
    vertex 6.135215521386843 -4.707716446627539 0.0
    vertex 6.754998149518621 -3.900000000000001 0.0
  endloop
endfacet
facet normal 0.0 0.0 -1.0
  outer loop
    vertex 6.929646455628165 -6.929646455628165 0.0
    vertex 6.754998149518621 -3.900000000000001 0.0
    vertex 7.144609797286673 -2.9593942758998364 0.0
  endloop
endfacet
facet normal 0.0 0.0 -1.0
  outer loop
    vertex 6.929646455628165 -6.929646455628165 0.0
    vertex 7.144609797286673 -2.9593942758998364 0.0
    vertex 8.487048957087499 -4.900000000000001 0.0
  endloop
endfacet
facet normal 0.0 0.0 -1.0
  outer loop
    vertex 8.487048957087499 -4.900000000000001 0.0
    vertex 7.144609797286673 -2.9593942758998364 0.0
    vertex 7.534221445054731 -2.0187885517996635 0.0
  endloop
endfacet
facet normal 0.0 0.0 -1.0
  outer loop
    vertex 8.487048957087499 -4.900000000000001 0.0
    vertex 7.534221445054731 -2.0187885517996635 0.0
    vertex 7.667110722527363 -1.0093942758998373 0.0
  endloop
endfacet
facet normal 0.0 0.0 -1.0
  outer loop
    vertex 8.487048957087499 -4.900000000000001 0.0
    vertex 7.667110722527363 -1.0093942758998373 0.0
    vertex 7.8 -4.776122516674677e-16 0.0
  endloop
endfacet
facet normal 0.0 0.0 -1.0
  outer loop
    vertex -5.602369792476596 1.5011504615946218 1.0361
    vertex -5.602369792476597 -1.501150461594618 1.0361
    vertex -5.8 7.102951435054648e-16 1.0361
  endloop
endfacet
facet normal 0.0 0.0 -1.0
  outer loop
    vertex -5.602369792476597 -1.501150461594618 1.0361
    vertex -5.602369792476596 1.5011504615946218 1.0361
    vertex -5.022947341949745 -2.8999999999999986 1.0361
  endloop
endfacet
facet normal 0.0 0.0 -1.0
  outer loop
    vertex -5.022947341949745 -2.8999999999999986 1.0361
    vertex -5.602369792476596 1.5011504615946218 1.0361
    vertex -5.0229473419497435 2.9000000000000017 1.0361
  endloop
endfacet
facet normal 0.0 0.0 -1.0
  outer loop
    vertex -5.022947341949745 -2.8999999999999986 1.0361
    vertex -5.0229473419497435 2.9000000000000017 1.0361
    vertex -4.101219330881978 -4.101219330881974 1.0361
  endloop
endfacet
facet normal 0.0 0.0 -1.0
  outer loop
    vertex -4.101219330881978 -4.101219330881974 1.0361
    vertex -5.0229473419497435 2.9000000000000017 1.0361
    vertex -4.101219330881975 4.1012193308819755 1.0361
  endloop
endfacet
facet normal 0.0 0.0 -1.0
  outer loop
    vertex -4.101219330881978 -4.101219330881974 1.0361
    vertex -4.101219330881975 4.1012193308819755 1.0361
    vertex -2.9000000000000026 -5.022947341949743 1.0361
  endloop
endfacet
facet normal 0.0 0.0 -1.0
  outer loop
    vertex -2.9000000000000026 -5.022947341949743 1.0361
    vertex -4.101219330881975 4.1012193308819755 1.0361
    vertex -2.8999999999999986 5.022947341949745 1.0361
  endloop
endfacet
facet normal 0.0 0.0 -1.0
  outer loop
    vertex -2.9000000000000026 -5.022947341949743 1.0361
    vertex -2.8999999999999986 5.022947341949745 1.0361
    vertex -1.5011504615946245 -5.602369792476595 1.0361
  endloop
endfacet
facet normal 0.0 0.0 -1.0
  outer loop
    vertex -1.5011504615946245 -5.602369792476595 1.0361
    vertex -2.8999999999999986 5.022947341949745 1.0361
    vertex -1.5011504615946196 5.602369792476597 1.0361
  endloop
endfacet
facet normal 0.0 0.0 -1.0
  outer loop
    vertex -1.5011504615946245 -5.602369792476595 1.0361
    vertex -1.5011504615946196 5.602369792476597 1.0361
    vertex -1.0654427152581972e-15 -5.8 1.0361
  endloop
endfacet
facet normal 0.0 0.0 -1.0
  outer loop
    vertex -1.0654427152581972e-15 -5.8 1.0361
    vertex -1.5011504615946196 5.602369792476597 1.0361
    vertex 3.551475717527324e-16 5.8 1.0361
  endloop
endfacet
facet normal 0.0 0.0 -1.0
  outer loop
    vertex -1.0654427152581972e-15 -5.8 1.0361
    vertex 3.551475717527324e-16 5.8 1.0361
    vertex 1.5011504615946176 -5.602369792476597 1.0361
  endloop
endfacet
facet normal 0.0 0.0 -1.0
  outer loop
    vertex 1.5011504615946176 -5.602369792476597 1.0361
    vertex 3.551475717527324e-16 5.8 1.0361
    vertex 1.5011504615946216 5.602369792476596 1.0361
  endloop
endfacet
facet normal 0.0 0.0 -1.0
  outer loop
    vertex 1.5011504615946176 -5.602369792476597 1.0361
    vertex 1.5011504615946216 5.602369792476596 1.0361
    vertex 2.899999999999996 -5.022947341949747 1.0361
  endloop
endfacet
facet normal 0.0 0.0 -1.0
  outer loop
    vertex 2.899999999999996 -5.022947341949747 1.0361
    vertex 1.5011504615946216 5.602369792476596 1.0361
    vertex 2.900000000000001 5.0229473419497435 1.0361
  endloop
endfacet
facet normal 0.0 0.0 -1.0
  outer loop
    vertex 2.899999999999996 -5.022947341949747 1.0361
    vertex 2.900000000000001 5.0229473419497435 1.0361
    vertex 4.101219330881975 -4.101219330881976 1.0361
  endloop
endfacet
facet normal 0.0 0.0 -1.0
  outer loop
    vertex 4.101219330881975 -4.101219330881976 1.0361
    vertex 2.900000000000001 5.0229473419497435 1.0361
    vertex 4.1012193308819755 4.101219330881975 1.0361
  endloop
endfacet
facet normal 0.0 0.0 -1.0
  outer loop
    vertex 4.101219330881975 -4.101219330881976 1.0361
    vertex 4.1012193308819755 4.101219330881975 1.0361
    vertex 5.022947341949743 -2.9000000000000026 1.0361
  endloop
endfacet
facet normal 0.0 0.0 -1.0
  outer loop
    vertex 5.022947341949743 -2.9000000000000026 1.0361
    vertex 4.1012193308819755 4.101219330881975 1.0361
    vertex 5.022947341949744 2.8999999999999995 1.0361
  endloop
endfacet
facet normal 0.0 0.0 -1.0
  outer loop
    vertex 5.022947341949743 -2.9000000000000026 1.0361
    vertex 5.022947341949744 2.8999999999999995 1.0361
    vertex 5.602369792476595 -1.501150461594625 1.0361
  endloop
endfacet
facet normal 0.0 0.0 -1.0
  outer loop
    vertex 5.602369792476595 -1.501150461594625 1.0361
    vertex 5.022947341949744 2.8999999999999995 1.0361
    vertex 5.602369792476597 1.5011504615946203 1.0361
  endloop
endfacet
facet normal 0.0 0.0 -1.0
  outer loop
    vertex 5.602369792476595 -1.501150461594625 1.0361
    vertex 5.602369792476597 1.5011504615946203 1.0361
    vertex 5.8 0.0 1.0361
  endloop
endfacet
facet normal 0.2588190451025208 0.9659258262890682 0.0
  outer loop
    vertex 1.5011504615946216 5.602369792476596 18.3527
    vertex 2.900000000000001 5.0229473419497435 1.0361
    vertex 1.5011504615946216 5.602369792476596 1.0361
  endloop
endfacet
facet normal 0.5000000000000001 0.8660254037844386 0.0
  outer loop
    vertex 2.900000000000001 5.0229473419497435 1.0361
    vertex 1.5011504615946216 5.602369792476596 18.3527
    vertex 2.900000000000001 5.0229473419497435 18.3527
  endloop
endfacet
facet normal 0.5000000000000001 0.8660254037844386 0.0
  outer loop
    vertex 2.900000000000001 5.0229473419497435 18.3527
    vertex 4.1012193308819755 4.101219330881975 1.0361
    vertex 2.900000000000001 5.0229473419497435 1.0361
  endloop
endfacet
facet normal 0.7071067811865475 0.7071067811865475 0.0
  outer loop
    vertex 4.1012193308819755 4.101219330881975 1.0361
    vertex 2.900000000000001 5.0229473419497435 18.3527
    vertex 4.1012193308819755 4.101219330881975 18.3527
  endloop
endfacet
facet normal 0.7071067811865475 0.7071067811865475 0.0
  outer loop
    vertex 4.1012193308819755 4.101219330881975 1.0361
    vertex 5.022947341949744 2.8999999999999995 18.3527
    vertex 5.022947341949744 2.8999999999999995 1.0361
  endloop
endfacet
facet normal 0.8660254037844386 0.5 0.0
  outer loop
    vertex 5.022947341949744 2.8999999999999995 18.3527
    vertex 4.1012193308819755 4.101219330881975 1.0361
    vertex 4.1012193308819755 4.101219330881975 18.3527
  endloop
endfacet
facet normal 0.8660254037844386 0.5 0.0
  outer loop
    vertex 5.022947341949744 2.8999999999999995 1.0361
    vertex 5.602369792476597 1.5011504615946203 18.3527
    vertex 5.602369792476597 1.5011504615946203 1.0361
  endloop
endfacet
facet normal 0.9659258262890682 0.25881904510252063 0.0
  outer loop
    vertex 5.602369792476597 1.5011504615946203 18.3527
    vertex 5.022947341949744 2.8999999999999995 1.0361
    vertex 5.022947341949744 2.8999999999999995 18.3527
  endloop
endfacet
facet normal 0.9659258262890682 0.25881904510252063 0.0
  outer loop
    vertex 5.602369792476597 1.5011504615946203 1.0361
    vertex 5.8 0.0 18.3527
    vertex 5.8 0.0 1.0361
  endloop
endfacet
facet normal 1.0 -2.7624440676505406e-16 0.0
  outer loop
    vertex 5.8 0.0 18.3527
    vertex 5.602369792476597 1.5011504615946203 1.0361
    vertex 5.602369792476597 1.5011504615946203 18.3527
  endloop
endfacet
facet normal 1.0 -2.7624440676505406e-16 0.0
  outer loop
    vertex 5.8 0.0 1.0361
    vertex 5.602369792476595 -1.501150461594625 18.3527
    vertex 5.602369792476595 -1.501150461594625 1.0361
  endloop
endfacet
facet normal 0.9659258262890682 -0.2588190451025213 0.0
  outer loop
    vertex 5.602369792476595 -1.501150461594625 18.3527
    vertex 5.8 0.0 1.0361
    vertex 5.8 0.0 18.3527
  endloop
endfacet
facet normal 0.9659258262890682 -0.2588190451025213 0.0
  outer loop
    vertex 5.602369792476595 -1.501150461594625 1.0361
    vertex 5.022947341949743 -2.9000000000000026 18.3527
    vertex 5.022947341949743 -2.9000000000000026 1.0361
  endloop
endfacet
facet normal 0.8660254037844386 -0.5000000000000003 0.0
  outer loop
    vertex 5.022947341949743 -2.9000000000000026 18.3527
    vertex 5.602369792476595 -1.501150461594625 1.0361
    vertex 5.602369792476595 -1.501150461594625 18.3527
  endloop
endfacet
facet normal 0.8660254037844386 -0.5000000000000003 0.0
  outer loop
    vertex 5.022947341949743 -2.9000000000000026 1.0361
    vertex 4.101219330881975 -4.101219330881976 18.3527
    vertex 4.101219330881975 -4.101219330881976 1.0361
  endloop
endfacet
facet normal 0.7071067811865472 -0.7071067811865477 0.0
  outer loop
    vertex 4.101219330881975 -4.101219330881976 18.3527
    vertex 5.022947341949743 -2.9000000000000026 1.0361
    vertex 5.022947341949743 -2.9000000000000026 18.3527
  endloop
endfacet
facet normal 0.7071067811865472 -0.7071067811865477 0.0
  outer loop
    vertex 4.101219330881975 -4.101219330881976 18.3527
    vertex 2.899999999999996 -5.022947341949747 1.0361
    vertex 4.101219330881975 -4.101219330881976 1.0361
  endloop
endfacet
facet normal 0.49999999999999956 -0.8660254037844389 0.0
  outer loop
    vertex 2.899999999999996 -5.022947341949747 1.0361
    vertex 4.101219330881975 -4.101219330881976 18.3527
    vertex 2.899999999999996 -5.022947341949747 18.3527
  endloop
endfacet
facet normal 0.49999999999999956 -0.8660254037844389 0.0
  outer loop
    vertex 2.899999999999996 -5.022947341949747 18.3527
    vertex 1.5011504615946176 -5.602369792476597 1.0361
    vertex 2.899999999999996 -5.022947341949747 1.0361
  endloop
endfacet
facet normal 0.25881904510252024 -0.9659258262890684 0.0
  outer loop
    vertex 1.5011504615946176 -5.602369792476597 1.0361
    vertex 2.899999999999996 -5.022947341949747 18.3527
    vertex 1.5011504615946176 -5.602369792476597 18.3527
  endloop
endfacet
facet normal 0.25881904510252024 -0.9659258262890684 0.0
  outer loop
    vertex 1.5011504615946176 -5.602369792476597 18.3527
    vertex -1.0654427152581972e-15 -5.8 1.0361
    vertex 1.5011504615946176 -5.602369792476597 1.0361
  endloop
endfacet
facet normal -4.990221541562268e-16 -1.0 0.0
  outer loop
    vertex -1.0654427152581972e-15 -5.8 1.0361
    vertex 1.5011504615946176 -5.602369792476597 18.3527
    vertex -1.0654427152581972e-15 -5.8 18.3527
  endloop
endfacet
facet normal -4.990221541562268e-16 -1.0 0.0
  outer loop
    vertex -1.0654427152581972e-15 -5.8 18.3527
    vertex -1.5011504615946245 -5.602369792476595 1.0361
    vertex -1.0654427152581972e-15 -5.8 1.0361
  endloop
endfacet
facet normal -0.25881904510252135 -0.9659258262890682 0.0
  outer loop
    vertex -1.5011504615946245 -5.602369792476595 1.0361
    vertex -1.0654427152581972e-15 -5.8 18.3527
    vertex -1.5011504615946245 -5.602369792476595 18.3527
  endloop
endfacet
facet normal -0.25881904510252135 -0.9659258262890682 0.0
  outer loop
    vertex -1.5011504615946245 -5.602369792476595 18.3527
    vertex -2.9000000000000026 -5.022947341949743 1.0361
    vertex -1.5011504615946245 -5.602369792476595 1.0361
  endloop
endfacet
facet normal -0.5000000000000006 -0.8660254037844384 0.0
  outer loop
    vertex -2.9000000000000026 -5.022947341949743 1.0361
    vertex -1.5011504615946245 -5.602369792476595 18.3527
    vertex -2.9000000000000026 -5.022947341949743 18.3527
  endloop
endfacet
facet normal -0.5000000000000006 -0.8660254037844384 0.0
  outer loop
    vertex -2.9000000000000026 -5.022947341949743 18.3527
    vertex -4.101219330881978 -4.101219330881974 1.0361
    vertex -2.9000000000000026 -5.022947341949743 1.0361
  endloop
endfacet
facet normal -0.7071067811865477 -0.7071067811865472 0.0
  outer loop
    vertex -4.101219330881978 -4.101219330881974 1.0361
    vertex -2.9000000000000026 -5.022947341949743 18.3527
    vertex -4.101219330881978 -4.101219330881974 18.3527
  endloop
endfacet
facet normal -0.8660254037844388 -0.4999999999999998 0.0
  outer loop
    vertex -5.022947341949745 -2.8999999999999986 18.3527
    vertex -4.101219330881978 -4.101219330881974 1.0361
    vertex -4.101219330881978 -4.101219330881974 18.3527
  endloop
endfacet
facet normal -0.7071067811865477 -0.7071067811865472 0.0
  outer loop
    vertex -4.101219330881978 -4.101219330881974 1.0361
    vertex -5.022947341949745 -2.8999999999999986 18.3527
    vertex -5.022947341949745 -2.8999999999999986 1.0361
  endloop
endfacet
facet normal -0.9659258262890684 -0.2588190451025204 0.0
  outer loop
    vertex -5.602369792476597 -1.501150461594618 18.3527
    vertex -5.022947341949745 -2.8999999999999986 1.0361
    vertex -5.022947341949745 -2.8999999999999986 18.3527
  endloop
endfacet
facet normal -0.8660254037844388 -0.4999999999999998 0.0
  outer loop
    vertex -5.022947341949745 -2.8999999999999986 1.0361
    vertex -5.602369792476597 -1.501150461594618 18.3527
    vertex -5.602369792476597 -1.501150461594618 1.0361
  endloop
endfacet
facet normal -1.0 3.6535550572152315e-16 0.0
  outer loop
    vertex -5.8 7.102951435054648e-16 18.3527
    vertex -5.602369792476597 -1.501150461594618 1.0361
    vertex -5.602369792476597 -1.501150461594618 18.3527
  endloop
endfacet
facet normal -0.9659258262890684 -0.2588190451025204 0.0
  outer loop
    vertex -5.602369792476597 -1.501150461594618 1.0361
    vertex -5.8 7.102951435054648e-16 18.3527
    vertex -5.8 7.102951435054648e-16 1.0361
  endloop
endfacet
facet normal -0.9659258262890682 0.25881904510252096 0.0
  outer loop
    vertex -5.602369792476596 1.5011504615946218 18.3527
    vertex -5.8 7.102951435054648e-16 1.0361
    vertex -5.8 7.102951435054648e-16 18.3527
  endloop
endfacet
facet normal -1.0 3.6535550572152315e-16 0.0
  outer loop
    vertex -5.8 7.102951435054648e-16 1.0361
    vertex -5.602369792476596 1.5011504615946218 18.3527
    vertex -5.602369792476596 1.5011504615946218 1.0361
  endloop
endfacet
facet normal -0.8660254037844384 0.5000000000000003 0.0
  outer loop
    vertex -5.0229473419497435 2.9000000000000017 18.3527
    vertex -5.602369792476596 1.5011504615946218 1.0361
    vertex -5.602369792476596 1.5011504615946218 18.3527
  endloop
endfacet
facet normal -0.9659258262890682 0.25881904510252096 0.0
  outer loop
    vertex -5.602369792476596 1.5011504615946218 1.0361
    vertex -5.0229473419497435 2.9000000000000017 18.3527
    vertex -5.0229473419497435 2.9000000000000017 1.0361
  endloop
endfacet
facet normal -0.7071067811865475 0.7071067811865477 0.0
  outer loop
    vertex -4.101219330881975 4.1012193308819755 18.3527
    vertex -5.0229473419497435 2.9000000000000017 1.0361
    vertex -5.0229473419497435 2.9000000000000017 18.3527
  endloop
endfacet
facet normal -0.8660254037844384 0.5000000000000003 0.0
  outer loop
    vertex -5.0229473419497435 2.9000000000000017 1.0361
    vertex -4.101219330881975 4.1012193308819755 18.3527
    vertex -4.101219330881975 4.1012193308819755 1.0361
  endloop
endfacet
facet normal -0.7071067811865475 0.7071067811865477 0.0
  outer loop
    vertex -4.101219330881975 4.1012193308819755 18.3527
    vertex -2.8999999999999986 5.022947341949745 1.0361
    vertex -4.101219330881975 4.1012193308819755 1.0361
  endloop
endfacet
facet normal -0.4999999999999999 0.8660254037844388 0.0
  outer loop
    vertex -2.8999999999999986 5.022947341949745 1.0361
    vertex -4.101219330881975 4.1012193308819755 18.3527
    vertex -2.8999999999999986 5.022947341949745 18.3527
  endloop
endfacet
facet normal -0.4999999999999999 0.8660254037844388 0.0
  outer loop
    vertex -2.8999999999999986 5.022947341949745 18.3527
    vertex -1.5011504615946196 5.602369792476597 1.0361
    vertex -2.8999999999999986 5.022947341949745 1.0361
  endloop
endfacet
facet normal -0.2588190451025205 0.9659258262890684 0.0
  outer loop
    vertex -1.5011504615946196 5.602369792476597 1.0361
    vertex -2.8999999999999986 5.022947341949745 18.3527
    vertex -1.5011504615946196 5.602369792476597 18.3527
  endloop
endfacet
facet normal -0.2588190451025205 0.9659258262890684 0.0
  outer loop
    vertex -1.5011504615946196 5.602369792476597 18.3527
    vertex 3.551475717527324e-16 5.8 1.0361
    vertex -1.5011504615946196 5.602369792476597 1.0361
  endloop
endfacet
facet normal 1.8713330780858502e-16 1.0 0.0
  outer loop
    vertex 3.551475717527324e-16 5.8 1.0361
    vertex -1.5011504615946196 5.602369792476597 18.3527
    vertex 3.551475717527324e-16 5.8 18.3527
  endloop
endfacet
facet normal 1.8713330780858502e-16 1.0 0.0
  outer loop
    vertex 3.551475717527324e-16 5.8 18.3527
    vertex 1.5011504615946216 5.602369792476596 1.0361
    vertex 3.551475717527324e-16 5.8 1.0361
  endloop
endfacet
facet normal 0.2588190451025208 0.9659258262890682 0.0
  outer loop
    vertex 1.5011504615946216 5.602369792476596 1.0361
    vertex 3.551475717527324e-16 5.8 18.3527
    vertex 1.5011504615946216 5.602369792476596 18.3527
  endloop
endfacet
facet normal 0.0 0.0 -1.0
  outer loop
    vertex -5.515432893255067 5.515432893255074 18.3527
    vertex -5.8 7.102951435054648e-16 18.3527
    vertex -6.754998149518619 3.9000000000000035 18.3527
  endloop
endfacet
facet normal 0.0 0.0 -1.0
  outer loop
    vertex -5.8 7.102951435054648e-16 18.3527
    vertex -5.515432893255067 5.515432893255074 18.3527
    vertex -5.602369792476596 1.5011504615946218 18.3527
  endloop
endfacet
facet normal 0.0 0.0 -1.0
  outer loop
    vertex -5.602369792476596 1.5011504615946218 18.3527
    vertex -5.515432893255067 5.515432893255074 18.3527
    vertex -5.0229473419497435 2.9000000000000017 18.3527
  endloop
endfacet
facet normal 0.0 0.0 -1.0
  outer loop
    vertex -5.0229473419497435 2.9000000000000017 18.3527
    vertex -5.515432893255067 5.515432893255074 18.3527
    vertex -3.8999999999999986 6.754998149518622 18.3527
  endloop
endfacet
facet normal 0.0 0.0 -1.0
  outer loop
    vertex -5.0229473419497435 2.9000000000000017 18.3527
    vertex -3.8999999999999986 6.754998149518622 18.3527
    vertex -4.101219330881975 4.1012193308819755 18.3527
  endloop
endfacet
facet normal 0.0 0.0 -1.0
  outer loop
    vertex -4.101219330881975 4.1012193308819755 18.3527
    vertex -3.8999999999999986 6.754998149518622 18.3527
    vertex -2.8999999999999986 5.022947341949745 18.3527
  endloop
endfacet
facet normal 0.0 0.0 -1.0
  outer loop
    vertex -2.8999999999999986 5.022947341949745 18.3527
    vertex -3.8999999999999986 6.754998149518622 18.3527
    vertex -2.0187885517996587 7.534221445054734 18.3527
  endloop
endfacet
facet normal 0.0 0.0 -1.0
  outer loop
    vertex -2.8999999999999986 5.022947341949745 18.3527
    vertex -2.0187885517996587 7.534221445054734 18.3527
    vertex -1.5011504615946196 5.602369792476597 18.3527
  endloop
endfacet
facet normal 0.0 0.0 -1.0
  outer loop
    vertex -1.5011504615946196 5.602369792476597 18.3527
    vertex -2.0187885517996587 7.534221445054734 18.3527
    vertex 9.552245033349355e-16 7.8 18.3527
  endloop
endfacet
facet normal 0.0 0.0 -1.0
  outer loop
    vertex -1.5011504615946196 5.602369792476597 18.3527
    vertex 9.552245033349355e-16 7.8 18.3527
    vertex 3.551475717527324e-16 5.8 18.3527
  endloop
endfacet
facet normal 0.0 0.0 -1.0
  outer loop
    vertex 3.551475717527324e-16 5.8 18.3527
    vertex 9.552245033349355e-16 7.8 18.3527
    vertex 1.5011504615946216 5.602369792476596 18.3527
  endloop
endfacet
facet normal 0.0 0.0 -1.0
  outer loop
    vertex 1.5011504615946216 5.602369792476596 18.3527
    vertex 9.552245033349355e-16 7.8 18.3527
    vertex 2.018788551799664 7.534221445054731 18.3527
  endloop
endfacet
facet normal 0.0 0.0 -1.0
  outer loop
    vertex 1.5011504615946216 5.602369792476596 18.3527
    vertex 2.018788551799664 7.534221445054731 18.3527
    vertex 2.900000000000001 5.0229473419497435 18.3527
  endloop
endfacet
facet normal 0.0 0.0 -1.0
  outer loop
    vertex 2.900000000000001 5.0229473419497435 18.3527
    vertex 2.018788551799664 7.534221445054731 18.3527
    vertex 3.9000000000000026 6.754998149518619 18.3527
  endloop
endfacet
facet normal 0.0 0.0 -1.0
  outer loop
    vertex 2.900000000000001 5.0229473419497435 18.3527
    vertex 3.9000000000000026 6.754998149518619 18.3527
    vertex 4.1012193308819755 4.101219330881975 18.3527
  endloop
endfacet
facet normal 0.0 0.0 -1.0
  outer loop
    vertex 4.1012193308819755 4.101219330881975 18.3527
    vertex 3.9000000000000026 6.754998149518619 18.3527
    vertex 5.5154328932550705 5.5154328932550705 18.3527
  endloop
endfacet
facet normal 0.0 0.0 -1.0
  outer loop
    vertex 4.1012193308819755 4.101219330881975 18.3527
    vertex 5.5154328932550705 5.5154328932550705 18.3527
    vertex 5.022947341949744 2.8999999999999995 18.3527
  endloop
endfacet
facet normal 0.0 0.0 -1.0
  outer loop
    vertex 5.022947341949744 2.8999999999999995 18.3527
    vertex 5.5154328932550705 5.5154328932550705 18.3527
    vertex 5.602369792476597 1.5011504615946203 18.3527
  endloop
endfacet
facet normal 0.0 0.0 -1.0
  outer loop
    vertex 5.602369792476597 1.5011504615946203 18.3527
    vertex 5.5154328932550705 5.5154328932550705 18.3527
    vertex 6.754998149518622 3.8999999999999986 18.3527
  endloop
endfacet
facet normal 0.0 0.0 -1.0
  outer loop
    vertex 5.602369792476597 1.5011504615946203 18.3527
    vertex 6.754998149518622 3.8999999999999986 18.3527
    vertex 5.8 0.0 18.3527
  endloop
endfacet
facet normal 0.0 0.0 -1.0
  outer loop
    vertex 5.8 0.0 18.3527
    vertex 6.754998149518622 3.8999999999999986 18.3527
    vertex 6.754998149518621 -3.900000000000001 18.3527
  endloop
endfacet
facet normal 0.0 0.0 -1.0
  outer loop
    vertex 6.754998149518621 -3.900000000000001 18.3527
    vertex 6.754998149518622 3.8999999999999986 18.3527
    vertex 7.534221445054731 -2.0187885517996635 18.3527
  endloop
endfacet
facet normal 0.0 0.0 -1.0
  outer loop
    vertex 7.534221445054731 -2.0187885517996635 18.3527
    vertex 6.754998149518622 3.8999999999999986 18.3527
    vertex 7.534221445054733 2.018788551799661 18.3527
  endloop
endfacet
facet normal 0.0 0.0 -1.0
  outer loop
    vertex 7.534221445054731 -2.0187885517996635 18.3527
    vertex 7.534221445054733 2.018788551799661 18.3527
    vertex 7.8 -4.776122516674677e-16 18.3527
  endloop
endfacet
facet normal 0.0 0.0 -1.0
  outer loop
    vertex -7.534221445054731 2.018788551799667 18.3527
    vertex -7.534221445054734 -2.018788551799658 18.3527
    vertex -7.8 1.4328367550024033e-15 18.3527
  endloop
endfacet
facet normal 0.0 0.0 -1.0
  outer loop
    vertex -7.534221445054734 -2.018788551799658 18.3527
    vertex -7.534221445054731 2.018788551799667 18.3527
    vertex -6.754998149518625 -3.899999999999994 18.3527
  endloop
endfacet
facet normal 0.0 0.0 -1.0
  outer loop
    vertex -6.754998149518625 -3.899999999999994 18.3527
    vertex -7.534221445054731 2.018788551799667 18.3527
    vertex -6.754998149518619 3.9000000000000035 18.3527
  endloop
endfacet
facet normal 0.0 0.0 -1.0
  outer loop
    vertex -6.754998149518625 -3.899999999999994 18.3527
    vertex -6.754998149518619 3.9000000000000035 18.3527
    vertex -5.515432893255071 -5.5154328932550705 18.3527
  endloop
endfacet
facet normal 0.0 0.0 -1.0
  outer loop
    vertex -5.515432893255071 -5.5154328932550705 18.3527
    vertex -6.754998149518619 3.9000000000000035 18.3527
    vertex -5.8 7.102951435054648e-16 18.3527
  endloop
endfacet
facet normal 0.0 0.0 -1.0
  outer loop
    vertex -5.515432893255071 -5.5154328932550705 18.3527
    vertex -5.8 7.102951435054648e-16 18.3527
    vertex -5.602369792476597 -1.501150461594618 18.3527
  endloop
endfacet
facet normal 0.0 0.0 -1.0
  outer loop
    vertex -5.515432893255071 -5.5154328932550705 18.3527
    vertex -5.602369792476597 -1.501150461594618 18.3527
    vertex -5.022947341949745 -2.8999999999999986 18.3527
  endloop
endfacet
facet normal 0.0 0.0 -1.0
  outer loop
    vertex -5.515432893255071 -5.5154328932550705 18.3527
    vertex -5.022947341949745 -2.8999999999999986 18.3527
    vertex -3.9000000000000035 -6.754998149518619 18.3527
  endloop
endfacet
facet normal 0.0 0.0 -1.0
  outer loop
    vertex -3.9000000000000035 -6.754998149518619 18.3527
    vertex -5.022947341949745 -2.8999999999999986 18.3527
    vertex -4.101219330881978 -4.101219330881974 18.3527
  endloop
endfacet
facet normal 0.0 0.0 -1.0
  outer loop
    vertex -3.9000000000000035 -6.754998149518619 18.3527
    vertex -4.101219330881978 -4.101219330881974 18.3527
    vertex -2.9000000000000026 -5.022947341949743 18.3527
  endloop
endfacet
facet normal 0.0 0.0 -1.0
  outer loop
    vertex -3.9000000000000035 -6.754998149518619 18.3527
    vertex -2.9000000000000026 -5.022947341949743 18.3527
    vertex -2.018788551799668 -7.534221445054731 18.3527
  endloop
endfacet
facet normal 0.0 0.0 -1.0
  outer loop
    vertex -2.018788551799668 -7.534221445054731 18.3527
    vertex -2.9000000000000026 -5.022947341949743 18.3527
    vertex -1.5011504615946245 -5.602369792476595 18.3527
  endloop
endfacet
facet normal 0.0 0.0 -1.0
  outer loop
    vertex -2.018788551799668 -7.534221445054731 18.3527
    vertex -1.5011504615946245 -5.602369792476595 18.3527
    vertex 0.0 -7.8 18.3527
  endloop
endfacet
facet normal 0.0 0.0 -1.0
  outer loop
    vertex 0.0 -7.8 18.3527
    vertex -1.5011504615946245 -5.602369792476595 18.3527
    vertex -1.0654427152581972e-15 -5.8 18.3527
  endloop
endfacet
facet normal 0.0 0.0 -1.0
  outer loop
    vertex 0.0 -7.8 18.3527
    vertex -1.0654427152581972e-15 -5.8 18.3527
    vertex 1.5011504615946176 -5.602369792476597 18.3527
  endloop
endfacet
facet normal 0.0 0.0 -1.0
  outer loop
    vertex 0.0 -7.8 18.3527
    vertex 1.5011504615946176 -5.602369792476597 18.3527
    vertex 2.0187885517996618 -7.534221445054733 18.3527
  endloop
endfacet
facet normal 0.0 0.0 -1.0
  outer loop
    vertex 2.0187885517996618 -7.534221445054733 18.3527
    vertex 1.5011504615946176 -5.602369792476597 18.3527
    vertex 2.899999999999996 -5.022947341949747 18.3527
  endloop
endfacet
facet normal 0.0 0.0 -1.0
  outer loop
    vertex 2.0187885517996618 -7.534221445054733 18.3527
    vertex 2.899999999999996 -5.022947341949747 18.3527
    vertex 3.899999999999999 -6.754998149518622 18.3527
  endloop
endfacet
facet normal 0.0 0.0 -1.0
  outer loop
    vertex 3.899999999999999 -6.754998149518622 18.3527
    vertex 2.899999999999996 -5.022947341949747 18.3527
    vertex 4.101219330881975 -4.101219330881976 18.3527
  endloop
endfacet
facet normal 0.0 0.0 -1.0
  outer loop
    vertex 3.899999999999999 -6.754998149518622 18.3527
    vertex 4.101219330881975 -4.101219330881976 18.3527
    vertex 5.5154328932550705 -5.5154328932550705 18.3527
  endloop
endfacet
facet normal 0.0 0.0 -1.0
  outer loop
    vertex 5.5154328932550705 -5.5154328932550705 18.3527
    vertex 4.101219330881975 -4.101219330881976 18.3527
    vertex 5.022947341949743 -2.9000000000000026 18.3527
  endloop
endfacet
facet normal 0.0 0.0 -1.0
  outer loop
    vertex 5.5154328932550705 -5.5154328932550705 18.3527
    vertex 5.022947341949743 -2.9000000000000026 18.3527
    vertex 5.602369792476595 -1.501150461594625 18.3527
  endloop
endfacet
facet normal 0.0 0.0 -1.0
  outer loop
    vertex 5.5154328932550705 -5.5154328932550705 18.3527
    vertex 5.602369792476595 -1.501150461594625 18.3527
    vertex 6.754998149518621 -3.900000000000001 18.3527
  endloop
endfacet
facet normal 0.0 0.0 -1.0
  outer loop
    vertex 6.754998149518621 -3.900000000000001 18.3527
    vertex 5.602369792476595 -1.501150461594625 18.3527
    vertex 5.8 0.0 18.3527
  endloop
endfacet
facet normal 5.524888135301081e-16 1.0 0.0
  outer loop
    vertex 9.552245033349355e-16 7.8 18.3527
    vertex 2.018788551799664 7.534221445054731 2.5869
    vertex 9.552245033349355e-16 7.8 2.5869
  endloop
endfacet
facet normal 0.2588190451025211 0.9659258262890682 0.0
  outer loop
    vertex 2.018788551799664 7.534221445054731 2.5869
    vertex 9.552245033349355e-16 7.8 18.3527
    vertex 2.018788551799664 7.534221445054731 18.3527
  endloop
endfacet
facet normal 0.2588190451025211 0.9659258262890682 0.0
  outer loop
    vertex 2.018788551799664 7.534221445054731 18.3527
    vertex 3.9000000000000026 6.754998149518619 2.5869
    vertex 2.018788551799664 7.534221445054731 2.5869
  endloop
endfacet
facet normal 0.5000000000000001 0.8660254037844386 0.0
  outer loop
    vertex 3.9000000000000026 6.754998149518619 2.5869
    vertex 2.018788551799664 7.534221445054731 18.3527
    vertex 3.9000000000000026 6.754998149518619 18.3527
  endloop
endfacet
facet normal 0.5000000000000001 0.8660254037844386 0.0
  outer loop
    vertex 3.9000000000000026 6.754998149518619 18.3527
    vertex 5.5154328932550705 5.5154328932550705 2.5869
    vertex 3.9000000000000026 6.754998149518619 2.5869
  endloop
endfacet
facet normal 0.7071067811865475 0.7071067811865475 0.0
  outer loop
    vertex 5.5154328932550705 5.5154328932550705 2.5869
    vertex 3.9000000000000026 6.754998149518619 18.3527
    vertex 5.5154328932550705 5.5154328932550705 18.3527
  endloop
endfacet
facet normal 0.7071067811865475 0.7071067811865475 0.0
  outer loop
    vertex 5.5154328932550705 5.5154328932550705 2.5869
    vertex 6.754998149518622 3.8999999999999986 18.3527
    vertex 6.754998149518622 3.8999999999999986 2.5869
  endloop
endfacet
facet normal 0.8660254037844387 0.5 0.0
  outer loop
    vertex 6.754998149518622 3.8999999999999986 18.3527
    vertex 5.5154328932550705 5.5154328932550705 2.5869
    vertex 5.5154328932550705 5.5154328932550705 18.3527
  endloop
endfacet
facet normal 0.8660254037844387 0.5 0.0
  outer loop
    vertex 6.754998149518622 3.8999999999999986 2.5869
    vertex 7.534221445054733 2.018788551799661 18.3527
    vertex 7.534221445054733 2.018788551799661 2.5869
  endloop
endfacet
facet normal 0.9659258262890682 0.2588190451025206 0.0
  outer loop
    vertex 7.534221445054733 2.018788551799661 18.3527
    vertex 6.754998149518622 3.8999999999999986 2.5869
    vertex 6.754998149518622 3.8999999999999986 18.3527
  endloop
endfacet
facet normal 0.9659258262890682 0.2588190451025206 0.0
  outer loop
    vertex 7.534221445054733 2.018788551799661 2.5869
    vertex 7.8 -4.776122516674677e-16 18.3527
    vertex 7.8 -4.776122516674677e-16 2.5869
  endloop
endfacet
facet normal 1.0 -2.85155516660701e-16 0.0
  outer loop
    vertex 7.8 -4.776122516674677e-16 18.3527
    vertex 7.534221445054733 2.018788551799661 2.5869
    vertex 7.534221445054733 2.018788551799661 18.3527
  endloop
endfacet
facet normal 1.0 -2.85155516660701e-16 0.0
  outer loop
    vertex 7.8 -4.776122516674677e-16 2.5869
    vertex 7.534221445054731 -2.0187885517996635 18.3527
    vertex 7.534221445054731 -2.0187885517996635 2.5869
  endloop
endfacet
facet normal 0.9659258262890682 -0.2588190451025209 0.0
  outer loop
    vertex 7.534221445054731 -2.0187885517996635 18.3527
    vertex 7.8 -4.776122516674677e-16 2.5869
    vertex 7.8 -4.776122516674677e-16 18.3527
  endloop
endfacet
facet normal 0.9659258262890682 -0.2588190451025209 0.0
  outer loop
    vertex 7.534221445054731 -2.0187885517996635 2.5869
    vertex 6.754998149518621 -3.900000000000001 18.3527
    vertex 6.754998149518621 -3.900000000000001 2.5869
  endloop
endfacet
facet normal 0.8660254037844387 -0.5 0.0
  outer loop
    vertex 6.754998149518621 -3.900000000000001 18.3527
    vertex 7.534221445054731 -2.0187885517996635 2.5869
    vertex 7.534221445054731 -2.0187885517996635 18.3527
  endloop
endfacet
facet normal 0.8660254037844387 -0.5 0.0
  outer loop
    vertex 6.754998149518621 -3.900000000000001 2.5869
    vertex 5.5154328932550705 -5.5154328932550705 18.3527
    vertex 5.5154328932550705 -5.5154328932550705 2.5869
  endloop
endfacet
facet normal 0.7071067811865476 -0.7071067811865475 0.0
  outer loop
    vertex 5.5154328932550705 -5.5154328932550705 18.3527
    vertex 6.754998149518621 -3.900000000000001 2.5869
    vertex 6.754998149518621 -3.900000000000001 18.3527
  endloop
endfacet
facet normal 0.7071067811865476 -0.7071067811865475 0.0
  outer loop
    vertex 5.5154328932550705 -5.5154328932550705 18.3527
    vertex 3.899999999999999 -6.754998149518622 2.5869
    vertex 5.5154328932550705 -5.5154328932550705 2.5869
  endloop
endfacet
facet normal 0.5 -0.8660254037844386 0.0
  outer loop
    vertex 3.899999999999999 -6.754998149518622 2.5869
    vertex 5.5154328932550705 -5.5154328932550705 18.3527
    vertex 3.899999999999999 -6.754998149518622 18.3527
  endloop
endfacet
facet normal 0.5 -0.8660254037844386 0.0
  outer loop
    vertex 3.899999999999999 -6.754998149518622 18.3527
    vertex 2.0187885517996618 -7.534221445054733 2.5869
    vertex 3.899999999999999 -6.754998149518622 2.5869
  endloop
endfacet
facet normal 0.2588190451025206 -0.9659258262890682 0.0
  outer loop
    vertex 2.0187885517996618 -7.534221445054733 2.5869
    vertex 3.899999999999999 -6.754998149518622 18.3527
    vertex 2.0187885517996618 -7.534221445054733 18.3527
  endloop
endfacet
facet normal 0.2588190451025206 -0.9659258262890682 0.0
  outer loop
    vertex 2.0187885517996618 -7.534221445054733 18.3527
    vertex 0.0 -7.8 2.5869
    vertex 2.0187885517996618 -7.534221445054733 2.5869
  endloop
endfacet
facet normal -1.603999781216443e-16 -1.0 0.0
  outer loop
    vertex 0.0 -7.8 2.5869
    vertex 2.0187885517996618 -7.534221445054733 18.3527
    vertex 0.0 -7.8 18.3527
  endloop
endfacet
facet normal -1.603999781216443e-16 -1.0 0.0
  outer loop
    vertex 0.0 -7.8 18.3527
    vertex -2.018788551799668 -7.534221445054731 2.5869
    vertex 0.0 -7.8 2.5869
  endloop
endfacet
facet normal -0.2588190451025212 -0.9659258262890682 0.0
  outer loop
    vertex -2.018788551799668 -7.534221445054731 2.5869
    vertex 0.0 -7.8 18.3527
    vertex -2.018788551799668 -7.534221445054731 18.3527
  endloop
endfacet
facet normal -0.2588190451025212 -0.9659258262890682 0.0
  outer loop
    vertex -2.018788551799668 -7.534221445054731 18.3527
    vertex -3.9000000000000035 -6.754998149518619 2.5869
    vertex -2.018788551799668 -7.534221445054731 2.5869
  endloop
endfacet
facet normal -0.5000000000000003 -0.8660254037844384 0.0
  outer loop
    vertex -3.9000000000000035 -6.754998149518619 2.5869
    vertex -2.018788551799668 -7.534221445054731 18.3527
    vertex -3.9000000000000035 -6.754998149518619 18.3527
  endloop
endfacet
facet normal -0.5000000000000003 -0.8660254037844384 0.0
  outer loop
    vertex -3.9000000000000035 -6.754998149518619 18.3527
    vertex -5.515432893255071 -5.5154328932550705 2.5869
    vertex -3.9000000000000035 -6.754998149518619 2.5869
  endloop
endfacet
facet normal -0.7071067811865477 -0.7071067811865472 0.0
  outer loop
    vertex -5.515432893255071 -5.5154328932550705 2.5869
    vertex -3.9000000000000035 -6.754998149518619 18.3527
    vertex -5.515432893255071 -5.5154328932550705 18.3527
  endloop
endfacet
facet normal -0.8660254037844389 -0.49999999999999956 0.0
  outer loop
    vertex -6.754998149518625 -3.899999999999994 18.3527
    vertex -5.515432893255071 -5.5154328932550705 2.5869
    vertex -5.515432893255071 -5.5154328932550705 18.3527
  endloop
endfacet
facet normal -0.7071067811865477 -0.7071067811865472 0.0
  outer loop
    vertex -5.515432893255071 -5.5154328932550705 2.5869
    vertex -6.754998149518625 -3.899999999999994 18.3527
    vertex -6.754998149518625 -3.899999999999994 2.5869
  endloop
endfacet
facet normal -0.9659258262890684 -0.2588190451025202 0.0
  outer loop
    vertex -7.534221445054734 -2.018788551799658 18.3527
    vertex -6.754998149518625 -3.899999999999994 2.5869
    vertex -6.754998149518625 -3.899999999999994 18.3527
  endloop
endfacet
facet normal -0.8660254037844389 -0.49999999999999956 0.0
  outer loop
    vertex -6.754998149518625 -3.899999999999994 2.5869
    vertex -7.534221445054734 -2.018788551799658 18.3527
    vertex -7.534221445054734 -2.018788551799658 2.5869
  endloop
endfacet
facet normal -1.0 4.990221541562268e-16 0.0
  outer loop
    vertex -7.8 1.4328367550024033e-15 18.3527
    vertex -7.534221445054734 -2.018788551799658 2.5869
    vertex -7.534221445054734 -2.018788551799658 18.3527
  endloop
endfacet
facet normal -0.9659258262890684 -0.2588190451025202 0.0
  outer loop
    vertex -7.534221445054734 -2.018788551799658 2.5869
    vertex -7.8 1.4328367550024033e-15 18.3527
    vertex -7.8 1.4328367550024033e-15 2.5869
  endloop
endfacet
facet normal -0.9659258262890682 0.2588190451025213 0.0
  outer loop
    vertex -7.534221445054731 2.018788551799667 18.3527
    vertex -7.8 1.4328367550024033e-15 2.5869
    vertex -7.8 1.4328367550024033e-15 18.3527
  endloop
endfacet
facet normal -1.0 4.990221541562268e-16 0.0
  outer loop
    vertex -7.8 1.4328367550024033e-15 2.5869
    vertex -7.534221445054731 2.018788551799667 18.3527
    vertex -7.534221445054731 2.018788551799667 2.5869
  endloop
endfacet
facet normal -0.8660254037844383 0.5000000000000006 0.0
  outer loop
    vertex -6.754998149518619 3.9000000000000035 18.3527
    vertex -7.534221445054731 2.018788551799667 2.5869
    vertex -7.534221445054731 2.018788551799667 18.3527
  endloop
endfacet
facet normal -0.9659258262890682 0.2588190451025213 0.0
  outer loop
    vertex -7.534221445054731 2.018788551799667 2.5869
    vertex -6.754998149518619 3.9000000000000035 18.3527
    vertex -6.754998149518619 3.9000000000000035 2.5869
  endloop
endfacet
facet normal -0.7071067811865471 0.707106781186548 0.0
  outer loop
    vertex -5.515432893255067 5.515432893255074 18.3527
    vertex -6.754998149518619 3.9000000000000035 2.5869
    vertex -6.754998149518619 3.9000000000000035 18.3527
  endloop
endfacet
facet normal -0.8660254037844383 0.5000000000000006 0.0
  outer loop
    vertex -6.754998149518619 3.9000000000000035 2.5869
    vertex -5.515432893255067 5.515432893255074 18.3527
    vertex -5.515432893255067 5.515432893255074 2.5869
  endloop
endfacet
facet normal -0.7071067811865471 0.707106781186548 0.0
  outer loop
    vertex -5.515432893255067 5.515432893255074 18.3527
    vertex -3.8999999999999986 6.754998149518622 2.5869
    vertex -5.515432893255067 5.515432893255074 2.5869
  endloop
endfacet
facet normal -0.4999999999999999 0.8660254037844387 0.0
  outer loop
    vertex -3.8999999999999986 6.754998149518622 2.5869
    vertex -5.515432893255067 5.515432893255074 18.3527
    vertex -3.8999999999999986 6.754998149518622 18.3527
  endloop
endfacet
facet normal -0.4999999999999999 0.8660254037844387 0.0
  outer loop
    vertex -3.8999999999999986 6.754998149518622 18.3527
    vertex -2.0187885517996587 7.534221445054734 2.5869
    vertex -3.8999999999999986 6.754998149518622 2.5869
  endloop
endfacet
facet normal -0.25881904510252046 0.9659258262890684 0.0
  outer loop
    vertex -2.0187885517996587 7.534221445054734 2.5869
    vertex -3.8999999999999986 6.754998149518622 18.3527
    vertex -2.0187885517996587 7.534221445054734 18.3527
  endloop
endfacet
facet normal -0.25881904510252046 0.9659258262890684 0.0
  outer loop
    vertex -2.0187885517996587 7.534221445054734 18.3527
    vertex 9.552245033349355e-16 7.8 2.5869
    vertex -2.0187885517996587 7.534221445054734 2.5869
  endloop
endfacet
facet normal 5.524888135301081e-16 1.0 0.0
  outer loop
    vertex 9.552245033349355e-16 7.8 2.5869
    vertex -2.0187885517996587 7.534221445054734 18.3527
    vertex 9.552245033349355e-16 7.8 18.3527
  endloop
endfacet
facet normal 0.0 0.0 1.0
  outer loop
    vertex -9.46607309763287 -2.536426642004699 2.5869
    vertex -9.466073097632867 2.5364266420047104 2.5869
    vertex -9.8 1.800230794746609e-15 2.5869
  endloop
endfacet
facet normal 0.0 0.0 1.0
  outer loop
    vertex -9.466073097632867 2.5364266420047104 2.5869
    vertex -9.46607309763287 -2.536426642004699 2.5869
    vertex -8.487048957087504 -4.899999999999993 2.5869
  endloop
endfacet
facet normal 0.0 0.0 1.0
  outer loop
    vertex -9.466073097632867 2.5364266420047104 2.5869
    vertex -8.487048957087504 -4.899999999999993 2.5869
    vertex -8.487048957087497 4.900000000000005 2.5869
  endloop
endfacet
facet normal 0.0 0.0 1.0
  outer loop
    vertex -8.487048957087497 4.900000000000005 2.5869
    vertex -8.487048957087504 -4.899999999999993 2.5869
    vertex -6.929646455628167 -6.929646455628165 2.5869
  endloop
endfacet
facet normal 0.0 0.0 1.0
  outer loop
    vertex -8.487048957087497 4.900000000000005 2.5869
    vertex -6.929646455628167 -6.929646455628165 2.5869
    vertex -7.8 1.4328367550024033e-15 2.5869
  endloop
endfacet
facet normal 0.0 0.0 1.0
  outer loop
    vertex -7.8 1.4328367550024033e-15 2.5869
    vertex -6.929646455628167 -6.929646455628165 2.5869
    vertex -7.534221445054734 -2.018788551799658 2.5869
  endloop
endfacet
facet normal 0.0 0.0 1.0
  outer loop
    vertex -7.534221445054734 -2.018788551799658 2.5869
    vertex -6.929646455628167 -6.929646455628165 2.5869
    vertex -6.754998149518625 -3.899999999999994 2.5869
  endloop
endfacet
facet normal 0.0 0.0 1.0
  outer loop
    vertex -6.754998149518625 -3.899999999999994 2.5869
    vertex -6.929646455628167 -6.929646455628165 2.5869
    vertex -4.900000000000005 -8.487048957087497 2.5869
  endloop
endfacet
facet normal 0.0 0.0 1.0
  outer loop
    vertex -6.754998149518625 -3.899999999999994 2.5869
    vertex -4.900000000000005 -8.487048957087497 2.5869
    vertex -5.515432893255071 -5.5154328932550705 2.5869
  endloop
endfacet
facet normal 0.0 0.0 1.0
  outer loop
    vertex -5.515432893255071 -5.5154328932550705 2.5869
    vertex -4.900000000000005 -8.487048957087497 2.5869
    vertex -3.9000000000000035 -6.754998149518619 2.5869
  endloop
endfacet
facet normal 0.0 0.0 1.0
  outer loop
    vertex -3.9000000000000035 -6.754998149518619 2.5869
    vertex -4.900000000000005 -8.487048957087497 2.5869
    vertex -2.536426642004711 -9.466073097632867 2.5869
  endloop
endfacet
facet normal 0.0 0.0 1.0
  outer loop
    vertex -3.9000000000000035 -6.754998149518619 2.5869
    vertex -2.536426642004711 -9.466073097632867 2.5869
    vertex -2.018788551799668 -7.534221445054731 2.5869
  endloop
endfacet
facet normal 0.0 0.0 1.0
  outer loop
    vertex -2.018788551799668 -7.534221445054731 2.5869
    vertex -2.536426642004711 -9.466073097632867 2.5869
    vertex 0.0 -9.8 2.5869
  endloop
endfacet
facet normal 0.0 0.0 1.0
  outer loop
    vertex -2.018788551799668 -7.534221445054731 2.5869
    vertex 0.0 -9.8 2.5869
    vertex 0.0 -7.8 2.5869
  endloop
endfacet
facet normal 0.0 0.0 1.0
  outer loop
    vertex 0.0 -7.8 2.5869
    vertex 0.0 -9.8 2.5869
    vertex 2.5364266420047032 -9.46607309763287 2.5869
  endloop
endfacet
facet normal 0.0 0.0 1.0
  outer loop
    vertex 0.0 -7.8 2.5869
    vertex 2.5364266420047032 -9.46607309763287 2.5869
    vertex 2.0187885517996618 -7.534221445054733 2.5869
  endloop
endfacet
facet normal 0.0 0.0 1.0
  outer loop
    vertex 2.0187885517996618 -7.534221445054733 2.5869
    vertex 2.5364266420047032 -9.46607309763287 2.5869
    vertex 3.899999999999999 -6.754998149518622 2.5869
  endloop
endfacet
facet normal 0.0 0.0 1.0
  outer loop
    vertex 3.899999999999999 -6.754998149518622 2.5869
    vertex 2.5364266420047032 -9.46607309763287 2.5869
    vertex 4.8999999999999995 -8.487048957087499 2.5869
  endloop
endfacet
facet normal 0.0 0.0 1.0
  outer loop
    vertex 3.899999999999999 -6.754998149518622 2.5869
    vertex 4.8999999999999995 -8.487048957087499 2.5869
    vertex 5.5154328932550705 -5.5154328932550705 2.5869
  endloop
endfacet
facet normal 0.0 0.0 1.0
  outer loop
    vertex 5.5154328932550705 -5.5154328932550705 2.5869
    vertex 4.8999999999999995 -8.487048957087499 2.5869
    vertex 6.929646455628165 -6.929646455628165 2.5869
  endloop
endfacet
facet normal 0.0 0.0 1.0
  outer loop
    vertex 5.5154328932550705 -5.5154328932550705 2.5869
    vertex 6.929646455628165 -6.929646455628165 2.5869
    vertex 6.754998149518621 -3.900000000000001 2.5869
  endloop
endfacet
facet normal 0.0 0.0 1.0
  outer loop
    vertex 6.754998149518621 -3.900000000000001 2.5869
    vertex 6.929646455628165 -6.929646455628165 2.5869
    vertex 7.534221445054731 -2.0187885517996635 2.5869
  endloop
endfacet
facet normal 0.0 0.0 1.0
  outer loop
    vertex 7.534221445054731 -2.0187885517996635 2.5869
    vertex 6.929646455628165 -6.929646455628165 2.5869
    vertex 8.487048957087499 -4.900000000000001 2.5869
  endloop
endfacet
facet normal 0.0 0.0 1.0
  outer loop
    vertex 7.534221445054731 -2.0187885517996635 2.5869
    vertex 8.487048957087499 -4.900000000000001 2.5869
    vertex 7.8 -4.776122516674677e-16 2.5869
  endloop
endfacet
facet normal 0.0 0.0 1.0
  outer loop
    vertex -7.8 1.4328367550024033e-15 2.5869
    vertex -6.929646455628162 6.92964645562817 2.5869
    vertex -8.487048957087497 4.900000000000005 2.5869
  endloop
endfacet
facet normal 0.0 0.0 1.0
  outer loop
    vertex -6.929646455628162 6.92964645562817 2.5869
    vertex -7.8 1.4328367550024033e-15 2.5869
    vertex -7.534221445054731 2.018788551799667 2.5869
  endloop
endfacet
facet normal 0.0 0.0 1.0
  outer loop
    vertex -6.929646455628162 6.92964645562817 2.5869
    vertex -7.534221445054731 2.018788551799667 2.5869
    vertex -6.754998149518619 3.9000000000000035 2.5869
  endloop
endfacet
facet normal 0.0 0.0 1.0
  outer loop
    vertex -6.929646455628162 6.92964645562817 2.5869
    vertex -6.754998149518619 3.9000000000000035 2.5869
    vertex -4.899999999999998 8.4870489570875 2.5869
  endloop
endfacet
facet normal 0.0 0.0 1.0
  outer loop
    vertex -4.899999999999998 8.4870489570875 2.5869
    vertex -6.754998149518619 3.9000000000000035 2.5869
    vertex -5.515432893255067 5.515432893255074 2.5869
  endloop
endfacet
facet normal 0.0 0.0 1.0
  outer loop
    vertex -4.899999999999998 8.4870489570875 2.5869
    vertex -5.515432893255067 5.515432893255074 2.5869
    vertex -3.8999999999999986 6.754998149518622 2.5869
  endloop
endfacet
facet normal 0.0 0.0 1.0
  outer loop
    vertex -4.899999999999998 8.4870489570875 2.5869
    vertex -3.8999999999999986 6.754998149518622 2.5869
    vertex -2.5364266420046993 9.46607309763287 2.5869
  endloop
endfacet
facet normal 0.0 0.0 1.0
  outer loop
    vertex -2.5364266420046993 9.46607309763287 2.5869
    vertex -3.8999999999999986 6.754998149518622 2.5869
    vertex -2.0187885517996587 7.534221445054734 2.5869
  endloop
endfacet
facet normal 0.0 0.0 1.0
  outer loop
    vertex -2.5364266420046993 9.46607309763287 2.5869
    vertex -2.0187885517996587 7.534221445054734 2.5869
    vertex 1.2001538631644061e-15 9.8 2.5869
  endloop
endfacet
facet normal 0.0 0.0 1.0
  outer loop
    vertex 1.2001538631644061e-15 9.8 2.5869
    vertex -2.0187885517996587 7.534221445054734 2.5869
    vertex 9.552245033349355e-16 7.8 2.5869
  endloop
endfacet
facet normal 0.0 0.0 1.0
  outer loop
    vertex 1.2001538631644061e-15 9.8 2.5869
    vertex 9.552245033349355e-16 7.8 2.5869
    vertex 2.018788551799664 7.534221445054731 2.5869
  endloop
endfacet
facet normal 0.0 0.0 1.0
  outer loop
    vertex 1.2001538631644061e-15 9.8 2.5869
    vertex 2.018788551799664 7.534221445054731 2.5869
    vertex 2.536426642004706 9.466073097632869 2.5869
  endloop
endfacet
facet normal 0.0 0.0 1.0
  outer loop
    vertex 2.536426642004706 9.466073097632869 2.5869
    vertex 2.018788551799664 7.534221445054731 2.5869
    vertex 3.9000000000000026 6.754998149518619 2.5869
  endloop
endfacet
facet normal 0.0 0.0 1.0
  outer loop
    vertex 2.536426642004706 9.466073097632869 2.5869
    vertex 3.9000000000000026 6.754998149518619 2.5869
    vertex 4.900000000000004 8.487048957087497 2.5869
  endloop
endfacet
facet normal 0.0 0.0 1.0
  outer loop
    vertex 4.900000000000004 8.487048957087497 2.5869
    vertex 3.9000000000000026 6.754998149518619 2.5869
    vertex 5.5154328932550705 5.5154328932550705 2.5869
  endloop
endfacet
facet normal 0.0 0.0 1.0
  outer loop
    vertex 4.900000000000004 8.487048957087497 2.5869
    vertex 5.5154328932550705 5.5154328932550705 2.5869
    vertex 6.929646455628165 6.929646455628165 2.5869
  endloop
endfacet
facet normal 0.0 0.0 1.0
  outer loop
    vertex 6.929646455628165 6.929646455628165 2.5869
    vertex 5.5154328932550705 5.5154328932550705 2.5869
    vertex 6.754998149518622 3.8999999999999986 2.5869
  endloop
endfacet
facet normal 0.0 0.0 1.0
  outer loop
    vertex 6.929646455628165 6.929646455628165 2.5869
    vertex 6.754998149518622 3.8999999999999986 2.5869
    vertex 7.534221445054733 2.018788551799661 2.5869
  endloop
endfacet
facet normal 0.0 0.0 1.0
  outer loop
    vertex 6.929646455628165 6.929646455628165 2.5869
    vertex 7.534221445054733 2.018788551799661 2.5869
    vertex 8.4870489570875 4.899999999999998 2.5869
  endloop
endfacet
facet normal 0.0 0.0 1.0
  outer loop
    vertex 8.4870489570875 4.899999999999998 2.5869
    vertex 7.534221445054733 2.018788551799661 2.5869
    vertex 7.8 -4.776122516674677e-16 2.5869
  endloop
endfacet
facet normal 0.0 0.0 1.0
  outer loop
    vertex 8.4870489570875 4.899999999999998 2.5869
    vertex 7.8 -4.776122516674677e-16 2.5869
    vertex 8.487048957087499 -4.900000000000001 2.5869
  endloop
endfacet
facet normal 0.0 0.0 1.0
  outer loop
    vertex 8.4870489570875 4.899999999999998 2.5869
    vertex 8.487048957087499 -4.900000000000001 2.5869
    vertex 9.466073097632869 -2.5364266420047055 2.5869
  endloop
endfacet
facet normal 0.0 0.0 1.0
  outer loop
    vertex 8.4870489570875 4.899999999999998 2.5869
    vertex 9.466073097632869 -2.5364266420047055 2.5869
    vertex 9.46607309763287 2.5364266420047024 2.5869
  endloop
endfacet
facet normal 0.0 0.0 1.0
  outer loop
    vertex 9.46607309763287 2.5364266420047024 2.5869
    vertex 9.466073097632869 -2.5364266420047055 2.5869
    vertex 9.8 -6.000769315822031e-16 2.5869
  endloop
endfacet
facet normal -3.475332859302293e-16 -1.0 0.0
  outer loop
    vertex 0.0 -9.8 2.5869
    vertex -2.536426642004711 -9.466073097632867 0.0
    vertex 0.0 -9.8 0.0
  endloop
endfacet
facet normal -0.25881904510252135 -0.9659258262890682 0.0
  outer loop
    vertex -2.536426642004711 -9.466073097632867 0.0
    vertex 0.0 -9.8 2.5869
    vertex -2.536426642004711 -9.466073097632867 2.5869
  endloop
endfacet
facet normal -0.25881904510252135 -0.9659258262890682 0.0
  outer loop
    vertex -2.536426642004711 -9.466073097632867 2.5869
    vertex -4.900000000000005 -8.487048957087497 0.0
    vertex -2.536426642004711 -9.466073097632867 0.0
  endloop
endfacet
facet normal -0.5000000000000001 -0.8660254037844386 0.0
  outer loop
    vertex -4.900000000000005 -8.487048957087497 0.0
    vertex -2.536426642004711 -9.466073097632867 2.5869
    vertex -4.900000000000005 -8.487048957087497 2.5869
  endloop
endfacet
facet normal -0.5000000000000001 -0.8660254037844386 0.0
  outer loop
    vertex -4.900000000000005 -8.487048957087497 2.5869
    vertex -6.929646455628167 -6.929646455628165 0.0
    vertex -4.900000000000005 -8.487048957087497 0.0
  endloop
endfacet
facet normal -0.7071067811865477 -0.7071067811865475 0.0
  outer loop
    vertex -6.929646455628167 -6.929646455628165 0.0
    vertex -4.900000000000005 -8.487048957087497 2.5869
    vertex -6.929646455628167 -6.929646455628165 2.5869
  endloop
endfacet
facet normal -0.8660254037844392 -0.49999999999999944 0.0
  outer loop
    vertex -8.487048957087504 -4.899999999999993 2.5869
    vertex -6.929646455628167 -6.929646455628165 0.0
    vertex -6.929646455628167 -6.929646455628165 2.5869
  endloop
endfacet
facet normal -0.7071067811865477 -0.7071067811865475 0.0
  outer loop
    vertex -6.929646455628167 -6.929646455628165 0.0
    vertex -8.487048957087504 -4.899999999999993 2.5869
    vertex -8.487048957087504 -4.899999999999993 0.0
  endloop
endfacet
facet normal -0.9659258262890684 -0.25881904510252024 0.0
  outer loop
    vertex -9.46607309763287 -2.536426642004699 2.5869
    vertex -8.487048957087504 -4.899999999999993 0.0
    vertex -8.487048957087504 -4.899999999999993 2.5869
  endloop
endfacet
facet normal -0.8660254037844392 -0.49999999999999944 0.0
  outer loop
    vertex -8.487048957087504 -4.899999999999993 0.0
    vertex -9.46607309763287 -2.536426642004699 2.5869
    vertex -9.46607309763287 -2.536426642004699 0.0
  endloop
endfacet
facet normal -1.0 6.059554729039896e-16 0.0
  outer loop
    vertex -9.8 1.800230794746609e-15 2.5869
    vertex -9.46607309763287 -2.536426642004699 0.0
    vertex -9.46607309763287 -2.536426642004699 2.5869
  endloop
endfacet
facet normal -0.9659258262890684 -0.25881904510252024 0.0
  outer loop
    vertex -9.46607309763287 -2.536426642004699 0.0
    vertex -9.8 1.800230794746609e-15 2.5869
    vertex -9.8 1.800230794746609e-15 0.0
  endloop
endfacet
facet normal -0.9659258262890681 0.25881904510252135 0.0
  outer loop
    vertex -9.466073097632867 2.5364266420047104 2.5869
    vertex -9.8 1.800230794746609e-15 0.0
    vertex -9.8 1.800230794746609e-15 2.5869
  endloop
endfacet
facet normal -1.0 6.059554729039896e-16 0.0
  outer loop
    vertex -9.8 1.800230794746609e-15 0.0
    vertex -9.466073097632867 2.5364266420047104 2.5869
    vertex -9.466073097632867 2.5364266420047104 0.0
  endloop
endfacet
facet normal -0.8660254037844384 0.5000000000000004 0.0
  outer loop
    vertex -8.487048957087497 4.900000000000005 2.5869
    vertex -9.466073097632867 2.5364266420047104 0.0
    vertex -9.466073097632867 2.5364266420047104 2.5869
  endloop
endfacet
facet normal -0.9659258262890681 0.25881904510252135 0.0
  outer loop
    vertex -9.466073097632867 2.5364266420047104 0.0
    vertex -8.487048957087497 4.900000000000005 2.5869
    vertex -8.487048957087497 4.900000000000005 0.0
  endloop
endfacet
facet normal -0.7071067811865471 0.7071067811865478 0.0
  outer loop
    vertex -6.929646455628162 6.92964645562817 2.5869
    vertex -8.487048957087497 4.900000000000005 0.0
    vertex -8.487048957087497 4.900000000000005 2.5869
  endloop
endfacet
facet normal -0.8660254037844384 0.5000000000000004 0.0
  outer loop
    vertex -8.487048957087497 4.900000000000005 0.0
    vertex -6.929646455628162 6.92964645562817 2.5869
    vertex -6.929646455628162 6.92964645562817 0.0
  endloop
endfacet
facet normal -0.7071067811865471 0.7071067811865478 0.0
  outer loop
    vertex -6.929646455628162 6.92964645562817 2.5869
    vertex -4.899999999999998 8.4870489570875 0.0
    vertex -6.929646455628162 6.92964645562817 0.0
  endloop
endfacet
facet normal -0.4999999999999998 0.8660254037844388 0.0
  outer loop
    vertex -4.899999999999998 8.4870489570875 0.0
    vertex -6.929646455628162 6.92964645562817 2.5869
    vertex -4.899999999999998 8.4870489570875 2.5869
  endloop
endfacet
facet normal -0.4999999999999998 0.8660254037844388 0.0
  outer loop
    vertex -4.899999999999998 8.4870489570875 2.5869
    vertex -2.5364266420046993 9.46607309763287 0.0
    vertex -4.899999999999998 8.4870489570875 0.0
  endloop
endfacet
facet normal -0.2588190451025204 0.9659258262890684 0.0
  outer loop
    vertex -2.5364266420046993 9.46607309763287 0.0
    vertex -4.899999999999998 8.4870489570875 2.5869
    vertex -2.5364266420046993 9.46607309763287 2.5869
  endloop
endfacet
facet normal -0.2588190451025204 0.9659258262890684 0.0
  outer loop
    vertex -2.5364266420046993 9.46607309763287 2.5869
    vertex 1.2001538631644061e-15 9.8 0.0
    vertex -2.5364266420046993 9.46607309763287 0.0
  endloop
endfacet
facet normal 4.1882216509540457e-16 1.0 0.0
  outer loop
    vertex 1.2001538631644061e-15 9.8 0.0
    vertex -2.5364266420046993 9.46607309763287 2.5869
    vertex 1.2001538631644061e-15 9.8 2.5869
  endloop
endfacet
facet normal 4.1882216509540457e-16 1.0 0.0
  outer loop
    vertex 1.2001538631644061e-15 9.8 2.5869
    vertex 2.536426642004706 9.466073097632869 0.0
    vertex 1.2001538631644061e-15 9.8 0.0
  endloop
endfacet
facet normal 0.25881904510252085 0.9659258262890682 0.0
  outer loop
    vertex 2.536426642004706 9.466073097632869 0.0
    vertex 1.2001538631644061e-15 9.8 2.5869
    vertex 2.536426642004706 9.466073097632869 2.5869
  endloop
endfacet
facet normal 0.25881904510252085 0.9659258262890682 0.0
  outer loop
    vertex 2.536426642004706 9.466073097632869 2.5869
    vertex 4.900000000000004 8.487048957087497 0.0
    vertex 2.536426642004706 9.466073097632869 0.0
  endloop
endfacet
facet normal 0.5000000000000001 0.8660254037844385 0.0
  outer loop
    vertex 4.900000000000004 8.487048957087497 0.0
    vertex 2.536426642004706 9.466073097632869 2.5869
    vertex 4.900000000000004 8.487048957087497 2.5869
  endloop
endfacet
facet normal 0.5000000000000001 0.8660254037844385 0.0
  outer loop
    vertex 4.900000000000004 8.487048957087497 2.5869
    vertex 6.929646455628165 6.929646455628165 0.0
    vertex 4.900000000000004 8.487048957087497 0.0
  endloop
endfacet
facet normal 0.7071067811865477 0.7071067811865475 0.0
  outer loop
    vertex 6.929646455628165 6.929646455628165 0.0
    vertex 4.900000000000004 8.487048957087497 2.5869
    vertex 6.929646455628165 6.929646455628165 2.5869
  endloop
endfacet
facet normal 0.7071067811865477 0.7071067811865475 0.0
  outer loop
    vertex 6.929646455628165 6.929646455628165 0.0
    vertex 8.4870489570875 4.899999999999998 2.5869
    vertex 8.4870489570875 4.899999999999998 0.0
  endloop
endfacet
facet normal 0.8660254037844387 0.4999999999999999 0.0
  outer loop
    vertex 8.4870489570875 4.899999999999998 2.5869
    vertex 6.929646455628165 6.929646455628165 0.0
    vertex 6.929646455628165 6.929646455628165 2.5869
  endloop
endfacet
facet normal 0.8660254037844387 0.4999999999999999 0.0
  outer loop
    vertex 8.4870489570875 4.899999999999998 0.0
    vertex 9.46607309763287 2.5364266420047024 2.5869
    vertex 9.46607309763287 2.5364266420047024 0.0
  endloop
endfacet
facet normal 0.9659258262890684 0.2588190451025206 0.0
  outer loop
    vertex 9.46607309763287 2.5364266420047024 2.5869
    vertex 8.4870489570875 4.899999999999998 0.0
    vertex 8.4870489570875 4.899999999999998 2.5869
  endloop
endfacet
facet normal 0.9659258262890684 0.2588190451025206 0.0
  outer loop
    vertex 9.46607309763287 2.5364266420047024 0.0
    vertex 9.8 -6.000769315822031e-16 2.5869
    vertex 9.8 -6.000769315822031e-16 0.0
  endloop
endfacet
facet normal 1.0 -2.4059996718246644e-16 0.0
  outer loop
    vertex 9.8 -6.000769315822031e-16 2.5869
    vertex 9.46607309763287 2.5364266420047024 0.0
    vertex 9.46607309763287 2.5364266420047024 2.5869
  endloop
endfacet
facet normal 1.0 -2.4059996718246644e-16 0.0
  outer loop
    vertex 9.8 -6.000769315822031e-16 0.0
    vertex 9.466073097632869 -2.5364266420047055 2.5869
    vertex 9.466073097632869 -2.5364266420047055 0.0
  endloop
endfacet
facet normal 0.9659258262890682 -0.25881904510252074 0.0
  outer loop
    vertex 9.466073097632869 -2.5364266420047055 2.5869
    vertex 9.8 -6.000769315822031e-16 0.0
    vertex 9.8 -6.000769315822031e-16 2.5869
  endloop
endfacet
facet normal 0.9659258262890682 -0.25881904510252074 0.0
  outer loop
    vertex 9.466073097632869 -2.5364266420047055 0.0
    vertex 8.487048957087499 -4.900000000000001 2.5869
    vertex 8.487048957087499 -4.900000000000001 0.0
  endloop
endfacet
facet normal 0.8660254037844387 -0.5 0.0
  outer loop
    vertex 8.487048957087499 -4.900000000000001 2.5869
    vertex 9.466073097632869 -2.5364266420047055 0.0
    vertex 9.466073097632869 -2.5364266420047055 2.5869
  endloop
endfacet
facet normal 0.8660254037844387 -0.5 0.0
  outer loop
    vertex 8.487048957087499 -4.900000000000001 0.0
    vertex 6.929646455628165 -6.929646455628165 2.5869
    vertex 6.929646455628165 -6.929646455628165 0.0
  endloop
endfacet
facet normal 0.7071067811865475 -0.7071067811865477 0.0
  outer loop
    vertex 6.929646455628165 -6.929646455628165 2.5869
    vertex 8.487048957087499 -4.900000000000001 0.0
    vertex 8.487048957087499 -4.900000000000001 2.5869
  endloop
endfacet
facet normal 0.7071067811865475 -0.7071067811865477 0.0
  outer loop
    vertex 6.929646455628165 -6.929646455628165 2.5869
    vertex 4.8999999999999995 -8.487048957087499 0.0
    vertex 6.929646455628165 -6.929646455628165 0.0
  endloop
endfacet
facet normal 0.5 -0.8660254037844387 0.0
  outer loop
    vertex 4.8999999999999995 -8.487048957087499 0.0
    vertex 6.929646455628165 -6.929646455628165 2.5869
    vertex 4.8999999999999995 -8.487048957087499 2.5869
  endloop
endfacet
facet normal 0.5 -0.8660254037844387 0.0
  outer loop
    vertex 4.8999999999999995 -8.487048957087499 2.5869
    vertex 2.5364266420047032 -9.46607309763287 0.0
    vertex 4.8999999999999995 -8.487048957087499 0.0
  endloop
endfacet
facet normal 0.25881904510252074 -0.9659258262890682 0.0
  outer loop
    vertex 2.5364266420047032 -9.46607309763287 0.0
    vertex 4.8999999999999995 -8.487048957087499 2.5869
    vertex 2.5364266420047032 -9.46607309763287 2.5869
  endloop
endfacet
facet normal 0.25881904510252074 -0.9659258262890682 0.0
  outer loop
    vertex 2.5364266420047032 -9.46607309763287 2.5869
    vertex 0.0 -9.8 0.0
    vertex 2.5364266420047032 -9.46607309763287 0.0
  endloop
endfacet
facet normal -3.475332859302293e-16 -1.0 0.0
  outer loop
    vertex 0.0 -9.8 0.0
    vertex 2.5364266420047032 -9.46607309763287 2.5869
    vertex 0.0 -9.8 2.5869
  endloop
endfacet
facet normal 0.0 0.0 -1.0
  outer loop
    vertex -7.144609797286675 2.9593942758998337 0.0
    vertex -7.667110722527365 -1.0093942758998264 0.0
    vertex -7.667110722527366 1.0093942758998342 0.0
  endloop
endfacet
facet normal 0.0 0.0 -1.0
  outer loop
    vertex -7.667110722527365 -1.0093942758998264 0.0
    vertex -7.144609797286675 2.9593942758998337 0.0
    vertex -7.1446097972866776 -2.959394275899828 0.0
  endloop
endfacet
facet normal 0.0 0.0 -1.0
  outer loop
    vertex -7.1446097972866776 -2.959394275899828 0.0
    vertex -7.144609797286675 2.9593942758998337 0.0
    vertex -6.135215521386847 -4.707716446627532 0.0
  endloop
endfacet
facet normal 0.0 0.0 -1.0
  outer loop
    vertex -6.135215521386847 -4.707716446627532 0.0
    vertex -7.144609797286675 2.9593942758998337 0.0
    vertex -6.135215521386844 4.707716446627538 0.0
  endloop
endfacet
facet normal 0.0 0.0 -1.0
  outer loop
    vertex -6.135215521386847 -4.707716446627532 0.0
    vertex -6.135215521386844 4.707716446627538 0.0
    vertex -4.707716446627539 -6.135215521386843 0.0
  endloop
endfacet
facet normal 0.0 0.0 -1.0
  outer loop
    vertex -4.707716446627539 -6.135215521386843 0.0
    vertex -6.135215521386844 4.707716446627538 0.0
    vertex -4.707716446627532 6.135215521386847 0.0
  endloop
endfacet
facet normal 0.0 0.0 -1.0
  outer loop
    vertex -4.707716446627539 -6.135215521386843 0.0
    vertex -4.707716446627532 6.135215521386847 0.0
    vertex -2.9593942758998337 -7.144609797286675 0.0
  endloop
endfacet
facet normal 0.0 0.0 -1.0
  outer loop
    vertex -2.9593942758998337 -7.144609797286675 0.0
    vertex -4.707716446627532 6.135215521386847 0.0
    vertex -2.959394275899828 7.1446097972866776 0.0
  endloop
endfacet
facet normal 0.0 0.0 -1.0
  outer loop
    vertex -2.9593942758998337 -7.144609797286675 0.0
    vertex -2.959394275899828 7.1446097972866776 0.0
    vertex -1.0093942758998369 -7.667110722527365 0.0
  endloop
endfacet
facet normal 0.0 0.0 -1.0
  outer loop
    vertex -1.0093942758998369 -7.667110722527365 0.0
    vertex -2.959394275899828 7.1446097972866776 0.0
    vertex -1.0093942758998224 7.667110722527366 0.0
  endloop
endfacet
facet normal 0.0 0.0 -1.0
  outer loop
    vertex -1.0093942758998369 -7.667110722527365 0.0
    vertex -1.0093942758998224 7.667110722527366 0.0
    vertex 1.009394275899826 -7.667110722527365 0.0
  endloop
endfacet
facet normal 0.0 0.0 -1.0
  outer loop
    vertex 1.009394275899826 -7.667110722527365 0.0
    vertex -1.0093942758998224 7.667110722527366 0.0
    vertex 1.0093942758998373 7.667110722527363 0.0
  endloop
endfacet
facet normal 0.0 0.0 -1.0
  outer loop
    vertex 1.009394275899826 -7.667110722527365 0.0
    vertex 1.0093942758998373 7.667110722527363 0.0
    vertex 2.9593942758998275 -7.1446097972866776 0.0
  endloop
endfacet
facet normal 0.0 0.0 -1.0
  outer loop
    vertex 2.9593942758998275 -7.1446097972866776 0.0
    vertex 1.0093942758998373 7.667110722527363 0.0
    vertex 2.9593942758998346 7.144609797286675 0.0
  endloop
endfacet
facet normal 0.0 0.0 -1.0
  outer loop
    vertex 2.9593942758998275 -7.1446097972866776 0.0
    vertex 2.9593942758998346 7.144609797286675 0.0
    vertex 4.707716446627531 -6.13521552138685 0.0
  endloop
endfacet
facet normal 0.0 0.0 -1.0
  outer loop
    vertex 4.707716446627531 -6.13521552138685 0.0
    vertex 2.9593942758998346 7.144609797286675 0.0
    vertex 4.707716446627542 6.13521552138684 0.0
  endloop
endfacet
facet normal 0.0 0.0 -1.0
  outer loop
    vertex 4.707716446627531 -6.13521552138685 0.0
    vertex 4.707716446627542 6.13521552138684 0.0
    vertex 6.135215521386843 -4.707716446627539 0.0
  endloop
endfacet
facet normal 0.0 0.0 -1.0
  outer loop
    vertex 6.135215521386843 -4.707716446627539 0.0
    vertex 4.707716446627542 6.13521552138684 0.0
    vertex 6.13521552138685 4.707716446627529 0.0
  endloop
endfacet
facet normal 0.0 0.0 -1.0
  outer loop
    vertex 6.135215521386843 -4.707716446627539 0.0
    vertex 6.13521552138685 4.707716446627529 0.0
    vertex 7.144609797286673 -2.9593942758998364 0.0
  endloop
endfacet
facet normal 0.0 0.0 -1.0
  outer loop
    vertex 7.144609797286673 -2.9593942758998364 0.0
    vertex 6.13521552138685 4.707716446627529 0.0
    vertex 7.1446097972866776 2.9593942758998266 0.0
  endloop
endfacet
facet normal 0.0 0.0 -1.0
  outer loop
    vertex 7.144609797286673 -2.9593942758998364 0.0
    vertex 7.1446097972866776 2.9593942758998266 0.0
    vertex 7.667110722527363 -1.0093942758998373 0.0
  endloop
endfacet
facet normal 0.0 0.0 -1.0
  outer loop
    vertex 7.667110722527363 -1.0093942758998373 0.0
    vertex 7.1446097972866776 2.9593942758998266 0.0
    vertex 7.667110722527366 1.009394275899823 0.0
  endloop
endfacet
facet normal 0.0 0.0 -1.0
  outer loop
    vertex -6.135215521386844 4.707716446627538 0.0
    vertex -7.144609797286675 2.9593942758998337 0.0
    vertex -6.754998149518619 3.9000000000000035 0.0
  endloop
endfacet
facet normal 0.0 0.0 -1.0
  outer loop
    vertex -2.959394275899828 7.1446097972866776 0.0
    vertex -4.707716446627532 6.135215521386847 0.0
    vertex -3.8999999999999986 6.754998149518622 0.0
  endloop
endfacet
facet normal 0.0 0.0 -1.0
  outer loop
    vertex -7.667110722527365 -1.0093942758998264 0.0
    vertex -7.8 1.4328367550024033e-15 0.0
    vertex -7.667110722527366 1.0093942758998342 0.0
  endloop
endfacet
facet normal 0.0 0.0 -1.0
  outer loop
    vertex -7.1446097972866776 -2.959394275899828 0.0
    vertex -7.534221445054734 -2.018788551799658 0.0
    vertex -7.667110722527365 -1.0093942758998264 0.0
  endloop
endfacet
facet normal 0.0 0.0 -1.0
  outer loop
    vertex -6.135215521386847 -4.707716446627532 0.0
    vertex -6.754998149518625 -3.899999999999994 0.0
    vertex -7.1446097972866776 -2.959394275899828 0.0
  endloop
endfacet
facet normal 0.0 0.0 -1.0
  outer loop
    vertex -7.144609797286675 2.9593942758998337 0.0
    vertex -7.667110722527366 1.0093942758998342 0.0
    vertex -7.534221445054731 2.018788551799667 0.0
  endloop
endfacet
facet normal 0.0 0.0 -1.0
  outer loop
    vertex -4.707716446627532 6.135215521386847 0.0
    vertex -6.135215521386844 4.707716446627538 0.0
    vertex -5.515432893255067 5.515432893255074 0.0
  endloop
endfacet
facet normal 0.0 0.0 -1.0
  outer loop
    vertex -4.707716446627539 -6.135215521386843 0.0
    vertex -5.515432893255071 -5.5154328932550705 0.0
    vertex -6.135215521386847 -4.707716446627532 0.0
  endloop
endfacet
facet normal 0.0 0.0 -1.0
  outer loop
    vertex -2.9593942758998337 -7.144609797286675 0.0
    vertex -3.9000000000000035 -6.754998149518619 0.0
    vertex -4.707716446627539 -6.135215521386843 0.0
  endloop
endfacet
facet normal 0.0 0.0 -1.0
  outer loop
    vertex -1.0093942758998369 -7.667110722527365 0.0
    vertex -2.018788551799668 -7.534221445054731 0.0
    vertex -2.9593942758998337 -7.144609797286675 0.0
  endloop
endfacet
facet normal 0.0 0.0 -1.0
  outer loop
    vertex 1.009394275899826 -7.667110722527365 0.0
    vertex 0.0 -7.8 0.0
    vertex -1.0093942758998369 -7.667110722527365 0.0
  endloop
endfacet
facet normal 0.0 0.0 -1.0
  outer loop
    vertex 2.9593942758998275 -7.1446097972866776 0.0
    vertex 2.0187885517996618 -7.534221445054733 0.0
    vertex 1.009394275899826 -7.667110722527365 0.0
  endloop
endfacet
facet normal 0.0 0.0 -1.0
  outer loop
    vertex 4.707716446627531 -6.13521552138685 0.0
    vertex 3.899999999999999 -6.754998149518622 0.0
    vertex 2.9593942758998275 -7.1446097972866776 0.0
  endloop
endfacet
facet normal 0.0 0.0 -1.0
  outer loop
    vertex 6.135215521386843 -4.707716446627539 0.0
    vertex 5.5154328932550705 -5.5154328932550705 0.0
    vertex 4.707716446627531 -6.13521552138685 0.0
  endloop
endfacet
facet normal 0.0 0.0 -1.0
  outer loop
    vertex 7.144609797286673 -2.9593942758998364 0.0
    vertex 6.754998149518621 -3.900000000000001 0.0
    vertex 6.135215521386843 -4.707716446627539 0.0
  endloop
endfacet
facet normal 0.0 0.0 -1.0
  outer loop
    vertex 7.667110722527363 -1.0093942758998373 0.0
    vertex 7.534221445054731 -2.0187885517996635 0.0
    vertex 7.144609797286673 -2.9593942758998364 0.0
  endloop
endfacet
facet normal 0.0 0.0 -1.0
  outer loop
    vertex 7.8 -4.776122516674677e-16 0.0
    vertex 7.667110722527363 -1.0093942758998373 0.0
    vertex 7.667110722527366 1.009394275899823 0.0
  endloop
endfacet
facet normal 0.0 0.0 -1.0
  outer loop
    vertex 7.667110722527366 1.009394275899823 0.0
    vertex 7.1446097972866776 2.9593942758998266 0.0
    vertex 7.534221445054733 2.018788551799661 0.0
  endloop
endfacet
facet normal 0.0 0.0 -1.0
  outer loop
    vertex 7.1446097972866776 2.9593942758998266 0.0
    vertex 6.13521552138685 4.707716446627529 0.0
    vertex 6.754998149518622 3.8999999999999986 0.0
  endloop
endfacet
facet normal 0.0 0.0 -1.0
  outer loop
    vertex 6.13521552138685 4.707716446627529 0.0
    vertex 4.707716446627542 6.13521552138684 0.0
    vertex 5.5154328932550705 5.5154328932550705 0.0
  endloop
endfacet
facet normal 0.0 0.0 -1.0
  outer loop
    vertex 4.707716446627542 6.13521552138684 0.0
    vertex 2.9593942758998346 7.144609797286675 0.0
    vertex 3.9000000000000026 6.754998149518619 0.0
  endloop
endfacet
facet normal 0.0 0.0 -1.0
  outer loop
    vertex 2.9593942758998346 7.144609797286675 0.0
    vertex 1.0093942758998373 7.667110722527363 0.0
    vertex 2.018788551799664 7.534221445054731 0.0
  endloop
endfacet
facet normal 0.0 0.0 -1.0
  outer loop
    vertex 1.0093942758998373 7.667110722527363 0.0
    vertex -1.0093942758998224 7.667110722527366 0.0
    vertex 9.552245033349355e-16 7.8 0.0
  endloop
endfacet
facet normal 0.0 0.0 -1.0
  outer loop
    vertex -1.0093942758998224 7.667110722527366 0.0
    vertex -2.959394275899828 7.1446097972866776 0.0
    vertex -2.0187885517996587 7.534221445054734 0.0
  endloop
endfacet
endsolid Rod Base
